<?xml version="1.0" standalone="no"?>
<!DOCTYPE svg PUBLIC "-//W3C//DTD SVG 20010904//EN"
 "http://www.w3.org/TR/2001/REC-SVG-20010904/DTD/svg10.dtd">
<svg version="1.0" xmlns="http://www.w3.org/2000/svg"
 width="600.000000pt" height="600.000000pt" viewBox="0 0 600.000000 600.000000"
 preserveAspectRatio="xMidYMid meet">
<metadata>
Created by potrace 1.11, written by Peter Selinger 2001-2013
</metadata>
<g transform="translate(0.000000,600.000000) scale(0.100000,-0.100000)"
fill="#000000" stroke="none">
<path d="M2904 5805 c-4 -8 -11 -15 -16 -15 -6 0 -17 -8 -24 -17 -13 -17 -14
-17 -7 2 6 18 5 18 -10 7 -9 -8 -21 -11 -26 -7 -7 3 -8 0 -5 -9 4 -11 0 -14
-15 -11 -12 2 -21 -1 -21 -7 0 -6 -9 -3 -21 8 -11 10 -20 14 -19 9 6 -28 -1
-37 -25 -33 -22 5 -23 3 -13 -10 11 -13 11 -14 0 -8 -8 5 -21 1 -33 -10 -11
-10 -19 -12 -19 -6 0 7 5 12 11 12 5 0 7 5 3 12 -5 8 -11 5 -17 -10 -9 -20
-11 -21 -24 -4 -12 16 -13 16 -6 -2 4 -13 3 -17 -5 -12 -7 4 -12 2 -12 -6 0
-9 -3 -9 -10 2 -8 12 -10 12 -10 -5 0 -15 -3 -16 -9 -7 -7 11 -11 11 -22 -1
-8 -7 -19 -12 -26 -10 -6 2 -14 -1 -18 -6 -3 -6 -17 -11 -31 -11 -14 0 -23 -4
-20 -8 2 -4 -4 -9 -15 -9 -12 -1 -17 3 -13 9 4 7 2 8 -4 4 -7 -4 -12 -14 -12
-22 0 -8 -5 -14 -11 -14 -5 0 -8 4 -4 9 3 5 0 13 -6 17 -7 4 -9 3 -5 -4 3 -6
-7 -17 -24 -25 -27 -14 -30 -14 -30 1 -1 13 -5 12 -21 -8 -23 -27 -37 -31 -56
-17 -8 5 -16 1 -23 -13 -9 -16 -15 -19 -25 -10 -9 8 -15 8 -20 0 -3 -6 -11 -8
-16 -5 -5 3 -6 0 -3 -8 3 -8 -1 -14 -10 -14 -8 0 -13 4 -10 9 3 4 -2 5 -10 2
-9 -3 -13 -11 -10 -16 4 -6 -4 -4 -17 3 -23 12 -23 11 -9 -6 8 -10 10 -16 3
-12 -6 4 -15 3 -18 -3 -5 -8 -11 -7 -21 1 -11 9 -14 9 -14 -1 0 -7 -7 -10 -16
-6 -8 3 -12 2 -9 -4 3 -6 3 -10 -2 -11 -4 0 -16 -2 -26 -4 -9 -2 -14 1 -11 7
3 5 -3 4 -14 -3 -12 -7 -19 -16 -17 -20 3 -3 -7 -4 -22 -1 -15 3 -23 1 -20 -4
3 -6 -9 -11 -26 -12 -17 -2 -34 -7 -37 -13 -4 -5 -14 -7 -22 -4 -8 3 -22 0
-29 -7 -8 -8 -23 -17 -33 -21 -17 -7 -17 -6 -5 10 13 17 12 17 -6 2 -11 -9
-26 -14 -34 -11 -8 3 -11 0 -7 -7 5 -7 -2 -11 -19 -11 -17 0 -24 -4 -19 -12 4
-6 3 -8 -4 -4 -6 3 -14 2 -17 -4 -5 -8 -11 -7 -21 1 -11 9 -14 8 -14 -7 0 -16
-2 -16 -10 -4 -8 12 -10 12 -16 -4 -5 -14 -9 -15 -15 -4 -7 11 -9 11 -9 -1 0
-11 -3 -11 -15 -1 -13 11 -14 10 -9 -5 5 -13 4 -16 -4 -11 -7 4 -12 2 -12 -3
0 -6 -5 -11 -11 -11 -5 0 -7 6 -4 13 4 6 -1 3 -9 -7 -9 -11 -16 -14 -16 -8 0
7 -5 12 -11 12 -5 0 -7 -4 -4 -10 3 -5 -3 -10 -14 -10 -10 0 -22 -6 -24 -12
-4 -10 -6 -10 -6 0 -1 6 -6 12 -12 12 -5 0 -7 -4 -4 -10 3 -5 -2 -10 -12 -10
-10 0 -27 -7 -37 -15 -16 -12 -22 -12 -35 -2 -9 8 -12 8 -8 1 4 -7 0 -15 -9
-18 -10 -4 -13 -2 -8 7 5 8 2 7 -9 -2 -14 -11 -17 -11 -18 0 0 8 -4 4 -9 -8
-7 -16 -14 -21 -26 -16 -10 4 -15 2 -11 -3 3 -6 -3 -11 -14 -11 -12 -1 -17 3
-13 10 4 7 -3 2 -15 -10 -26 -28 -32 -29 -24 -5 5 14 3 13 -10 -3 -8 -11 -13
-23 -11 -27 2 -4 -4 -13 -14 -20 -19 -14 -22 -31 -8 -45 5 -4 6 -3 2 4 -3 6
-1 15 6 19 7 4 10 4 6 -1 -4 -4 -3 -17 3 -28 8 -14 8 -18 0 -13 -6 4 -11 2
-11 -4 0 -7 8 -9 22 -5 16 6 20 4 16 -7 -5 -11 4 -15 34 -17 22 -1 47 -8 55
-16 18 -18 25 -19 42 -2 10 10 11 8 5 -7 -6 -15 -4 -18 9 -13 9 3 23 -1 32 -9
11 -11 15 -12 15 -3 0 7 7 5 16 -7 8 -10 13 -13 9 -7 -4 9 -1 11 9 7 9 -3 13
-10 10 -15 -3 -5 0 -9 5 -9 6 0 11 -4 11 -10 0 -5 -3 -9 -7 -9 -21 3 -33 -2
-27 -13 5 -8 0 -9 -15 -5 -18 4 -20 3 -10 -9 9 -11 7 -14 -11 -14 -13 0 -21
-3 -17 -6 7 -8 -17 -34 -32 -34 -6 0 -11 -5 -11 -11 0 -5 -4 -8 -9 -4 -5 3
-12 -4 -16 -14 -4 -13 -11 -18 -22 -14 -13 5 -15 2 -10 -11 5 -14 3 -17 -8
-12 -8 3 -16 1 -16 -4 -1 -6 -2 -16 -3 -22 0 -7 -7 -14 -13 -14 -7 -1 -21 -2
-30 -3 -16 -1 -16 -3 -3 -11 13 -8 13 -10 -2 -10 -10 0 -25 -11 -34 -25 -9
-14 -24 -25 -33 -25 -14 0 -14 -2 -1 -10 9 -6 10 -10 3 -10 -20 0 -65 -48 -57
-61 4 -8 3 -9 -4 -5 -7 4 -12 2 -12 -4 0 -6 -3 -9 -7 -7 -13 8 -33 -19 -33
-44 0 -5 -5 -7 -12 -3 -8 5 -9 2 -5 -10 4 -10 3 -15 -3 -11 -6 3 -10 1 -10 -5
0 -7 -7 -10 -15 -6 -8 3 -14 2 -13 -2 0 -4 -5 -22 -12 -39 -11 -30 -21 -38
-43 -34 -4 0 -6 -2 -6 -6 4 -22 -2 -33 -13 -27 -8 5 -7 0 2 -11 9 -11 10 -16
2 -11 -8 5 -15 -1 -21 -16 -5 -13 -21 -33 -35 -46 -15 -12 -24 -27 -21 -32 3
-6 2 -10 -4 -10 -5 0 -13 -9 -16 -20 -4 -12 -11 -17 -18 -13 -7 4 -5 -2 3 -12
8 -10 10 -16 4 -12 -7 4 -18 -1 -25 -10 -12 -14 -12 -16 1 -9 9 4 8 2 -2 -7
-10 -8 -15 -17 -11 -20 3 -4 -2 -9 -11 -13 -9 -3 -16 -13 -16 -21 0 -8 -4 -12
-8 -9 -5 3 -9 -1 -9 -8 0 -8 5 -13 11 -12 6 2 8 1 3 -1 -4 -3 -5 -9 -2 -14 4
-5 -2 -6 -12 -2 -10 3 -15 3 -11 -2 4 -4 0 -14 -10 -22 -9 -8 -11 -12 -5 -8 9
4 11 1 7 -9 -3 -9 -10 -14 -14 -11 -4 3 -11 -2 -14 -11 -3 -8 -2 -12 4 -9 6 3
10 1 10 -4 0 -6 -6 -11 -14 -11 -8 0 -18 -5 -22 -12 -5 -7 -3 -8 6 -3 8 5 11
3 8 -6 -3 -8 -10 -13 -16 -12 -6 2 -9 -8 -6 -23 4 -22 2 -25 -13 -20 -14 6
-15 5 -6 -5 10 -10 9 -15 -5 -26 -9 -8 -11 -11 -4 -8 11 6 11 3 0 -14 -7 -12
-17 -21 -23 -21 -5 0 -3 -5 5 -10 9 -6 11 -10 3 -10 -7 0 -10 -7 -6 -17 4 -9
2 -14 -3 -10 -6 3 -16 -3 -23 -15 -7 -11 -8 -17 -3 -14 6 3 12 -1 15 -9 4 -9
1 -12 -7 -9 -8 3 -17 0 -22 -7 -5 -8 -3 -10 7 -4 12 8 12 6 0 -8 -7 -9 -11
-28 -9 -42 5 -22 3 -23 -10 -13 -11 9 -14 9 -9 1 4 -6 2 -15 -4 -18 -5 -4 -8
-13 -5 -20 3 -8 0 -16 -7 -19 -8 -3 -8 -5 2 -5 10 -1 11 -4 2 -15 -6 -8 -11
-18 -10 -22 3 -20 -2 -34 -12 -34 -8 0 -7 6 2 18 13 15 12 16 -4 3 -13 -10
-15 -17 -6 -27 6 -8 7 -14 2 -14 -5 0 -9 -17 -8 -37 0 -24 -6 -44 -17 -55 -17
-17 -15 -22 7 -19 6 1 3 -4 -6 -11 -9 -8 -15 -26 -14 -45 1 -18 -2 -33 -5 -33
-4 0 -6 -11 -5 -25 2 -14 -2 -28 -7 -32 -7 -3 -8 -1 -4 5 5 8 1 10 -10 5 -15
-6 -15 -7 0 -15 13 -7 14 -13 6 -23 -16 -19 -22 -57 -7 -48 8 4 7 1 -1 -10 -8
-9 -10 -22 -6 -29 5 -7 9 -21 9 -30 1 -15 -1 -15 -14 -5 -12 9 -13 9 -7 0 4
-7 2 -23 -4 -35 -10 -21 -10 -21 3 -6 13 16 14 15 13 -12 -1 -31 -11 -40 -19
-17 -3 6 -4 -2 -3 -18 1 -17 6 -36 10 -44 6 -10 5 -12 -2 -7 -7 4 -12 1 -12
-8 0 -8 6 -17 13 -19 9 -4 9 -6 0 -6 -15 -1 -18 -31 -3 -31 6 0 10 -5 10 -11
0 -5 -4 -7 -10 -4 -6 4 -10 -22 -10 -69 0 -44 4 -76 10 -76 6 0 10 -5 10 -11
0 -5 -5 -7 -10 -4 -6 4 -10 -6 -10 -22 0 -21 3 -24 10 -13 7 12 9 10 7 -7 0
-12 -5 -19 -9 -17 -4 3 -8 -2 -8 -11 0 -10 5 -13 13 -9 9 6 9 4 1 -7 -18 -24
-11 -91 11 -99 16 -6 17 -7 2 -13 -10 -4 -14 -12 -11 -22 3 -8 11 -12 18 -8 6
4 5 -1 -3 -10 -11 -14 -11 -17 0 -17 11 0 11 -2 -1 -10 -12 -8 -12 -10 -1 -10
10 0 11 -3 2 -14 -9 -11 -9 -15 1 -19 10 -3 11 -9 1 -25 -11 -18 -10 -20 1
-16 18 7 31 -15 17 -29 -7 -7 -5 -14 7 -24 9 -8 11 -12 5 -8 -7 3 -13 2 -13
-4 0 -5 6 -12 13 -14 9 -4 8 -6 -2 -6 -10 -1 -10 -7 4 -27 9 -15 12 -23 6 -20
-6 4 -11 2 -11 -3 0 -6 8 -11 18 -12 15 0 15 -1 -2 -8 -18 -7 -18 -8 -2 -14
14 -5 17 -14 12 -33 -5 -19 -4 -24 6 -18 8 5 8 1 -2 -11 -9 -11 -10 -16 -2
-11 8 5 12 -2 12 -23 0 -17 5 -31 10 -31 6 0 10 -13 10 -30 0 -16 5 -30 11
-30 8 0 8 -4 0 -14 -9 -11 -9 -16 0 -22 8 -5 9 -3 4 7 -8 12 -6 12 8 0 13 -10
15 -17 6 -27 -10 -12 -6 -18 12 -16 3 0 4 -12 3 -28 -1 -17 4 -31 12 -34 7 -3
11 -12 8 -21 -3 -8 -1 -15 6 -15 6 0 8 -5 5 -10 -4 -6 -11 -7 -17 -4 -7 4 -8
2 -4 -5 4 -6 12 -9 17 -6 5 4 9 -1 9 -9 0 -9 4 -16 9 -16 6 0 8 -9 6 -20 -2
-12 4 -25 15 -32 10 -7 16 -18 12 -26 -4 -11 -1 -13 8 -7 10 6 12 4 7 -8 -7
-18 15 -41 29 -29 4 4 3 0 -4 -10 -10 -12 -10 -18 -1 -24 8 -5 9 -3 4 6 -5 8
-4 11 3 6 6 -4 9 -13 5 -21 -3 -8 0 -15 7 -15 6 0 8 -5 5 -10 -3 -6 1 -10 10
-10 9 0 13 -5 10 -10 -3 -6 -1 -10 5 -10 6 0 8 -5 5 -10 -3 -6 1 -13 10 -16
13 -6 14 -8 3 -15 -11 -7 -11 -9 1 -9 8 0 11 -6 7 -16 -3 -8 -2 -13 3 -10 12
8 41 -38 41 -66 0 -19 2 -20 10 -8 8 12 10 10 10 -8 0 -15 4 -21 12 -16 7 4 8
3 4 -5 -4 -6 -2 -18 4 -26 6 -8 8 -20 4 -27 -5 -8 -1 -8 11 2 11 9 16 10 11 3
-4 -8 -2 -13 6 -13 9 0 9 -3 -2 -10 -10 -6 -11 -10 -2 -10 6 0 12 -9 12 -21 0
-22 24 -52 34 -42 3 4 6 1 6 -5 0 -24 2 -27 21 -34 11 -4 17 -12 14 -18 -4 -6
-3 -10 2 -9 20 3 25 -2 13 -16 -11 -13 -10 -14 4 -9 10 4 18 0 22 -10 3 -9 11
-13 18 -9 7 4 7 1 -1 -7 -10 -11 -7 -17 18 -32 22 -13 29 -24 24 -36 -3 -9 -3
-13 1 -9 9 9 44 -22 44 -39 0 -8 8 -11 21 -9 17 4 19 2 9 -10 -7 -8 -8 -15 -3
-15 15 0 53 -36 46 -44 -6 -6 21 -10 41 -7 5 1 4 -5 -4 -13 -12 -15 -6 -20 21
-18 3 0 11 -9 19 -21 12 -21 12 -21 -6 -7 -18 14 -18 14 -5 -3 8 -10 20 -16
28 -13 9 4 11 1 7 -6 -5 -8 -2 -9 11 -4 14 5 16 4 6 -7 -9 -11 -3 -18 29 -32
22 -10 40 -22 40 -27 0 -5 6 -6 13 -2 7 5 6 0 -3 -11 -14 -17 -13 -18 7 -13
16 4 20 2 16 -10 -4 -10 -2 -13 5 -8 8 4 12 0 12 -11 0 -15 2 -16 10 -3 6 10
10 11 10 3 0 -7 7 -13 16 -13 8 0 12 -5 9 -10 -3 -6 -1 -10 5 -10 6 0 8 -5 4
-12 -5 -8 0 -7 11 2 11 9 16 10 11 3 -4 -8 -2 -13 4 -13 6 0 8 -4 5 -10 -3 -6
1 -7 9 -4 11 4 16 0 16 -12 0 -14 2 -16 9 -6 7 11 9 10 15 -3 3 -9 11 -13 17
-9 8 4 9 3 5 -4 -4 -7 -2 -12 4 -12 6 0 8 -5 4 -11 -4 -7 1 -7 16 1 15 8 20 8
16 1 -4 -6 -2 -11 4 -11 7 0 9 -7 6 -16 -5 -14 -4 -15 9 -4 12 10 15 9 15 -6
0 -15 2 -16 9 -5 7 11 10 9 16 -9 6 -18 9 -20 16 -9 7 12 9 12 9 0 0 -8 6 -11
16 -7 8 3 13 2 10 -3 -3 -5 2 -15 11 -22 9 -8 14 -9 10 -3 -3 6 0 11 7 11 8 0
12 -7 9 -14 -3 -8 0 -13 8 -11 8 2 13 -3 11 -10 -2 -10 2 -10 19 -1 15 8 19 8
15 0 -4 -7 1 -11 13 -11 12 0 21 -7 21 -16 0 -8 5 -12 10 -9 6 3 10 1 10 -4 0
-6 3 -10 8 -10 18 3 33 -2 28 -9 -2 -4 3 -8 12 -9 34 -3 47 -8 64 -28 15 -17
19 -18 28 -5 6 10 10 11 10 3 0 -7 7 -13 15 -13 8 0 15 -5 15 -12 0 -6 3 -8 7
-5 3 4 14 0 24 -9 10 -9 25 -14 33 -11 9 4 18 1 22 -5 5 -7 2 -8 -6 -3 -9 5
-11 4 -6 -4 6 -9 11 -9 21 -1 10 8 16 7 24 -7 6 -11 11 -13 11 -5 0 10 4 10
16 -2 8 -9 26 -16 40 -16 13 0 24 -4 24 -10 0 -5 5 -10 11 -10 5 0 8 4 5 8 -3
5 1 9 9 9 8 0 12 -4 10 -8 -3 -4 2 -10 11 -13 8 -3 12 -2 9 4 -3 6 1 7 9 4 9
-3 13 -10 10 -16 -3 -5 0 -9 7 -7 32 4 60 -2 54 -11 -9 -14 8 -13 23 2 9 9 12
8 12 -7 0 -17 2 -18 10 -5 7 11 10 11 10 2 0 -7 4 -10 10 -7 6 3 10 0 10 -7 0
-9 3 -9 10 2 9 13 10 13 10 0 0 -13 1 -13 10 0 5 8 10 10 10 5 0 -6 10 -16 21
-24 19 -11 21 -11 16 3 -4 10 -1 13 9 9 7 -3 14 -9 14 -15 0 -5 8 -8 18 -6 9
1 23 -2 31 -6 11 -7 13 -5 8 7 -4 11 -2 14 8 10 8 -3 12 -9 9 -14 -3 -5 6 -5
20 1 17 6 27 6 32 -1 4 -6 11 -6 20 2 12 10 13 9 8 -5 -7 -19 6 -21 25 -3 11
10 13 9 9 -3 -4 -11 2 -16 23 -16 16 -1 27 2 24 6 -2 3 2 7 10 7 8 0 12 -4 9
-9 -6 -10 25 -6 43 5 8 5 11 3 8 -5 -4 -10 6 -14 40 -14 25 0 45 5 45 11 0 5
4 3 9 -5 6 -8 7 -18 4 -24 -4 -5 -1 -6 6 -2 7 5 10 15 6 23 -4 13 -3 14 10 3
8 -7 12 -17 8 -23 -3 -6 -1 -7 6 -3 6 4 9 11 6 16 -6 10 15 19 32 13 7 -2 11
-10 9 -16 -1 -7 -1 -9 1 -4 3 4 14 7 24 7 14 0 18 4 13 13 -5 7 -1 6 10 -3 19
-15 88 -15 118 1 12 7 18 6 18 -2 0 -8 4 -8 15 1 11 9 15 9 15 1 0 -8 6 -9 18
-3 9 5 28 8 42 8 14 -1 28 4 32 9 4 6 8 1 8 -10 1 -18 2 -17 16 5 8 14 13 17
10 8 -3 -12 -1 -15 9 -11 8 3 13 8 11 12 -3 4 5 8 17 8 17 2 18 0 7 -7 -11 -7
-10 -9 7 -7 12 0 19 5 17 9 -3 4 4 8 15 8 10 0 28 3 38 6 15 5 15 4 3 -5 -9
-7 -10 -11 -3 -11 6 0 14 4 18 10 3 5 13 6 21 3 9 -3 20 0 25 8 5 9 9 10 9 2
0 -15 53 -10 58 6 2 6 12 11 22 11 10 0 22 5 25 10 4 7 13 6 27 -1 17 -9 20
-9 16 3 -4 9 2 14 19 16 16 1 22 -2 18 -11 -4 -6 -1 -5 7 4 7 9 19 14 26 12 6
-3 12 1 12 9 0 10 3 9 10 -2 8 -12 10 -12 16 3 6 16 27 25 21 9 -1 -4 3 -8 8
-9 6 -1 9 4 7 12 -2 10 5 12 23 9 18 -3 25 0 25 11 0 9 5 13 10 10 6 -4 8 -10
6 -14 -3 -4 1 -8 8 -8 9 0 12 7 8 16 -3 9 -1 13 3 8 5 -4 19 0 33 9 13 9 21
11 18 5 -5 -7 -1 -9 8 -5 9 3 13 11 10 16 -4 6 4 5 16 -2 15 -8 20 -8 16 -1
-4 6 -2 11 4 11 6 0 9 4 5 9 -3 5 7 8 22 7 33 -4 55 3 48 14 -3 4 2 10 10 14
8 3 15 1 15 -5 0 -5 6 -4 14 3 8 7 11 18 8 23 -3 6 2 4 11 -4 14 -11 18 -11
23 3 4 10 13 15 20 12 8 -3 19 4 25 16 8 15 13 17 19 8 6 -9 10 -8 17 5 5 9
14 18 19 18 5 1 8 6 6 11 -2 5 3 4 11 -2 11 -10 17 -9 28 5 13 17 13 17 -6 3
-20 -14 -20 -14 -1 7 14 18 23 20 37 12 15 -7 19 -6 19 6 0 13 12 19 33 16 4
0 7 7 7 17 0 14 2 15 10 2 8 -13 10 -12 10 3 0 9 5 17 11 17 5 0 7 -6 4 -12
-4 -7 5 2 20 20 23 28 29 31 43 20 12 -10 14 -10 8 0 -4 6 -2 12 3 12 6 0 11
8 12 18 0 10 3 12 6 5 3 -10 8 -9 20 2 8 8 19 12 25 9 6 -4 8 -3 5 2 -3 6 -2
16 4 24 6 11 9 12 9 2 0 -7 5 -10 10 -7 6 4 8 11 5 16 -6 8 9 13 29 10 5 -1 6
6 2 15 -6 15 -4 15 11 3 11 -9 14 -10 9 -1 -4 7 -2 12 5 12 13 0 65 51 62 61
-1 4 5 6 15 5 10 0 16 5 14 13 -2 8 3 11 12 8 9 -4 15 -1 13 6 -1 7 6 11 15 9
12 -2 16 3 13 17 -3 15 1 19 16 16 11 -2 17 0 14 6 -4 5 -1 9 5 9 6 0 8 5 4
12 -5 8 -2 9 10 5 9 -4 14 -3 11 2 -3 5 4 13 16 16 11 4 18 9 16 12 -3 2 10
20 29 39 19 19 31 34 27 34 -4 1 2 6 14 13 12 7 23 17 25 22 2 6 6 9 10 8 4
-2 5 4 1 13 -3 9 0 14 8 12 8 -2 13 3 12 10 -3 11 9 16 29 13 4 0 5 6 2 14 -4
8 -1 15 6 15 6 0 8 5 4 12 -5 7 -1 9 13 6 17 -5 21 -1 18 18 -1 14 2 27 8 31
6 4 7 1 2 -7 -5 -8 -3 -11 6 -8 8 3 13 10 12 16 -2 6 6 16 17 22 12 6 17 16
14 22 -5 7 -1 9 9 5 20 -8 22 4 5 22 -11 10 -10 11 3 6 10 -4 20 -1 25 6 5 8
3 10 -7 4 -11 -7 -12 -6 -2 7 7 8 9 19 5 23 -4 5 -1 5 6 1 11 -6 17 5 13 26 0
4 6 5 14 2 10 -4 13 0 10 15 -2 12 0 19 6 16 5 -4 9 -1 9 5 0 6 4 9 9 5 6 -3
8 4 6 15 -2 11 -1 19 3 16 11 -6 29 18 26 37 -1 9 2 15 7 11 5 -3 9 0 9 6 0 7
6 10 14 7 10 -4 13 0 11 14 -5 26 4 51 17 43 5 -3 9 0 7 7 -1 8 -1 21 0 29 1
13 2 13 12 0 8 -12 9 -10 7 10 -2 17 1 24 11 22 12 -3 12 -1 0 14 -9 12 -9 15
-1 10 7 -4 12 -2 12 4 0 6 4 9 8 6 5 -3 9 1 9 9 0 8 -5 12 -11 9 -6 -3 -3 1 7
9 10 9 18 18 18 21 -3 21 1 26 12 20 7 -5 7 -1 -3 12 -8 10 -10 16 -6 12 10
-9 36 9 36 24 0 6 -8 4 -17 -3 -17 -13 -17 -13 0 7 9 11 14 24 10 29 -5 4 -2
5 5 1 7 -4 12 -2 13 6 1 7 2 18 4 23 1 6 3 19 4 30 1 17 3 18 11 5 8 -12 10
-8 11 15 1 17 2 36 2 42 -1 7 4 10 10 6 6 -4 8 2 5 15 -4 14 -2 19 7 16 9 -4
12 4 11 25 -1 16 2 28 6 25 4 -3 8 0 8 6 0 6 5 8 12 4 7 -4 8 -3 4 5 -4 6 -13
8 -19 4 -7 -4 -6 0 2 10 7 9 11 26 8 38 -5 17 -3 18 11 7 13 -11 14 -11 8 0
-5 8 -1 21 10 33 9 10 12 19 6 19 -6 0 -12 -5 -14 -12 -3 -9 -6 -9 -12 0 -4 7
-2 12 4 12 6 0 8 5 4 12 -4 6 -3 8 3 5 6 -4 14 0 17 9 4 10 2 13 -7 8 -8 -5
-7 -2 2 9 7 9 11 26 8 37 -3 11 0 23 5 27 6 3 8 1 4 -5 -3 -6 -3 -13 2 -16 4
-3 9 14 11 36 3 57 4 61 21 75 13 12 13 12 -1 8 -9 -4 -16 0 -16 9 0 8 6 12
13 9 6 -2 15 1 20 8 4 7 3 10 -2 6 -6 -3 -16 -2 -24 4 -11 6 -12 9 -2 9 7 0
10 5 6 12 -4 6 -3 8 4 4 6 -3 13 -2 17 4 3 5 1 10 -4 10 -6 0 -11 5 -11 11 0
5 4 8 9 5 5 -3 11 1 15 9 3 8 0 17 -6 21 -7 5 -8 2 -3 -6 5 -9 4 -11 -4 -6 -9
6 -9 11 0 22 6 8 9 17 6 20 -3 3 -2 18 3 33 4 16 3 36 -3 47 -10 17 -9 18 8 4
17 -14 18 -14 7 7 -15 28 -15 36 1 27 9 -6 9 -4 -1 8 -10 13 -10 17 0 20 16 6
21 240 4 250 -8 6 -7 8 2 8 6 0 12 4 12 10 0 5 -8 7 -17 4 -16 -5 -16 -4 -2 5
13 8 16 24 15 71 -2 33 -5 63 -9 66 -3 3 -4 -6 -3 -20 2 -14 0 -23 -4 -21 -9
5 -10 56 -3 69 3 4 9 2 14 -5 5 -8 9 -9 9 -3 0 6 -7 17 -15 24 -10 8 -15 31
-15 65 0 33 -5 55 -12 58 -10 4 -10 6 0 6 15 1 16 31 1 31 -8 0 -8 4 0 14 9
11 9 16 0 22 -8 5 -9 3 -4 -7 8 -12 6 -12 -8 0 -18 14 -23 26 -8 17 5 -3 11 1
15 9 3 8 0 17 -6 21 -7 5 -8 2 -3 -6 5 -9 4 -11 -3 -6 -9 5 -9 13 -2 26 13 25
13 33 -2 24 -8 -5 -9 -2 -4 11 4 11 0 26 -11 38 -10 11 -13 18 -7 14 6 -3 11
0 11 8 0 8 -4 12 -8 10 -4 -3 -10 15 -14 40 -3 25 -10 43 -14 40 -5 -2 -6 7
-3 22 4 20 2 24 -9 18 -12 -7 -12 -6 -1 7 10 13 10 17 -2 21 -9 3 -12 15 -9
31 4 17 1 26 -7 26 -9 0 -9 4 1 17 10 11 10 14 2 9 -13 -7 -17 4 -13 33 1 9
-4 12 -15 7 -9 -3 -13 -2 -10 3 3 5 1 13 -5 16 -8 5 -7 11 1 21 9 11 9 14 -1
14 -8 0 -10 3 -7 7 4 3 -1 12 -11 20 -9 8 -11 12 -4 8 17 -9 15 10 -3 25 -8 7
-12 16 -9 21 3 5 0 9 -7 9 -7 0 -9 3 -6 7 4 3 1 13 -5 21 -7 8 -13 19 -14 26
-5 30 -10 42 -24 54 -13 12 -13 13 0 6 13 -7 13 -5 1 9 -7 9 -10 17 -5 17 5 1
0 9 -12 18 -11 10 -24 30 -28 45 -3 15 -12 26 -19 24 -6 -1 -11 4 -9 12 2 7
-5 23 -15 35 -17 20 -17 20 1 6 18 -14 18 -14 6 7 -8 11 -19 19 -25 16 -8 -3
-11 5 -9 22 2 19 -1 25 -12 21 -7 -3 -13 -2 -13 2 4 21 -2 42 -10 38 -11 -7
-23 22 -14 36 3 7 1 8 -5 4 -7 -4 -12 -1 -12 9 0 10 -5 13 -12 9 -8 -5 -9 -2
-5 9 3 10 2 17 -4 17 -6 0 -7 5 -4 10 3 6 -3 10 -14 10 -12 0 -20 3 -20 8 4
22 -2 42 -11 37 -9 -6 -14 8 -11 28 1 5 -3 6 -9 2 -5 -3 -10 0 -10 8 0 8 -7
17 -15 21 -8 3 -15 12 -15 20 0 8 -4 18 -10 21 -6 3 -7 -1 -4 -12 4 -14 3 -14
-7 2 -6 11 -19 29 -28 40 -14 17 -14 18 -1 10 9 -6 7 -2 -3 7 -11 10 -24 15
-29 12 -6 -4 -4 4 3 17 11 22 11 23 -5 10 -15 -12 -17 -12 -14 0 2 8 -3 13
-12 11 -8 -2 -12 0 -8 3 4 4 -1 15 -10 24 -10 9 -13 14 -7 11 6 -3 3 2 -7 11
-9 9 -14 20 -10 24 4 5 2 5 -4 2 -6 -4 -24 5 -40 19 -16 15 -22 23 -14 18 13
-7 13 -6 1 9 -8 10 -16 15 -19 12 -3 -3 -12 7 -19 22 -7 16 -11 19 -8 8 5 -17
3 -17 -17 5 -13 13 -22 28 -20 33 1 5 -1 6 -6 3 -4 -2 -18 9 -31 25 -13 16
-29 29 -37 29 -8 0 -14 5 -14 10 0 6 -5 10 -11 10 -15 0 -39 26 -31 34 3 4 -2
4 -11 0 -12 -4 -17 -2 -15 7 2 7 -4 13 -12 14 -8 0 -14 8 -14 17 1 10 -4 14
-12 11 -8 -3 -14 0 -14 6 0 6 -5 11 -11 11 -5 0 -7 -5 -3 -12 4 -7 3 -8 -4 -4
-7 4 -12 14 -12 22 0 8 -5 14 -11 14 -5 0 -7 -5 -3 -12 4 -7 3 -8 -5 -4 -8 6
-9 12 -2 20 6 7 7 17 3 21 -4 5 -1 5 6 1 6 -4 12 -3 12 1 0 5 10 14 23 22 17
10 19 11 10 0 -7 -7 -13 -17 -13 -23 0 -5 9 1 20 14 13 15 20 18 20 9 1 -10 4
-9 14 4 10 12 16 15 21 7 5 -8 11 -8 21 1 8 6 14 8 14 4 0 -4 6 -2 13 4 8 6
18 7 22 3 5 -4 5 -1 1 6 -5 8 -1 19 10 28 11 9 14 13 9 10 -6 -2 -11 6 -11 19
0 13 4 21 9 18 5 -3 3 4 -4 15 -7 12 -17 18 -23 15 -5 -4 -7 1 -3 11 5 14 3
17 -8 12 -8 -3 -15 -1 -15 4 0 5 -7 7 -15 4 -8 -4 -15 -2 -15 3 0 5 -13 8 -30
7 -16 -1 -29 1 -28 5 0 3 0 13 -1 21 -1 13 -2 13 -12 0 -7 -11 -12 -12 -15 -3
-3 7 -13 9 -21 6 -12 -5 -15 -2 -11 8 4 10 -5 14 -35 16 -22 1 -43 7 -48 14
-5 8 -8 6 -12 -7 -4 -15 -5 -15 -6 -3 0 9 -8 20 -17 23 -8 3 -13 2 -10 -3 4
-5 -3 -7 -14 -4 -11 3 -20 9 -20 13 0 4 -12 12 -26 18 -20 10 -24 10 -18 0 4
-7 -3 -4 -16 7 -13 11 -20 14 -16 8 5 -9 2 -11 -8 -7 -9 3 -16 10 -16 16 0 5
-4 7 -9 3 -5 -3 -12 -1 -16 5 -3 6 -17 8 -31 6 -18 -4 -24 0 -24 12 0 13 -2
14 -9 4 -6 -11 -11 -10 -25 3 -9 9 -23 15 -30 12 -8 -3 -24 2 -37 10 -12 9
-19 11 -15 5 5 -8 2 -10 -8 -6 -9 3 -13 11 -9 18 4 7 1 6 -9 -2 -12 -10 -20
-8 -44 10 -15 13 -25 18 -21 11 5 -7 0 -9 -13 -6 -16 4 -18 9 -9 19 9 11 5 12
-19 5 -20 -6 -34 -5 -41 2 -6 6 -11 8 -11 3 0 -4 -14 3 -32 15 -17 13 -28 17
-24 10 7 -10 4 -11 -13 -2 -11 7 -21 8 -21 4 0 -4 -7 1 -15 11 -8 11 -15 14
-15 8 0 -10 -3 -10 -14 0 -8 7 -12 15 -11 18 5 8 -44 5 -52 -3 -3 -4 -17 2
-29 14 -13 12 -37 21 -58 22 -30 1 -33 3 -23 16 6 9 7 13 3 9 -5 -4 -16 -2
-24 5 -13 9 -14 9 -8 0 4 -7 2 -13 -3 -13 -6 0 -11 6 -11 13 0 8 -4 7 -10 -3
-7 -12 -10 -12 -10 -1 0 7 -6 11 -15 7 -10 -3 -15 1 -15 12 0 15 -2 15 -10 2
-8 -12 -10 -12 -10 -1 0 8 -3 11 -7 8 -3 -4 -12 1 -20 11 -8 9 -12 11 -8 5 4
-8 0 -13 -10 -13 -10 0 -13 5 -9 13 5 7 0 6 -11 -3 -10 -8 -16 -10 -13 -5 4 6
3 17 -3 25 -7 12 -9 12 -9 1 0 -11 -3 -11 -17 0 -15 12 -16 12 -8 -1 8 -13 6
-13 -8 -2 -9 8 -21 11 -27 7 -5 -3 -10 2 -10 12 0 15 -2 16 -10 3 -8 -13 -10
-13 -10 1 0 11 -8 15 -25 14 -14 -2 -25 1 -25 7 0 6 -7 4 -17 -3 -14 -12 -16
-12 -8 0 6 11 3 13 -13 9 -12 -4 -26 0 -33 8 -7 8 -18 13 -26 10 -8 -3 -12 -2
-9 3 3 5 -1 12 -10 15 -8 3 -12 2 -9 -4 3 -6 -1 -7 -9 -4 -9 3 -16 10 -16 15
0 4 -7 5 -17 2 -11 -4 -14 -3 -9 6 9 14 -16 11 -26 -4 -4 -6 -8 -2 -8 8 0 10
-4 15 -10 12 -5 -3 -10 -1 -10 6 0 8 -5 7 -17 -2 -11 -10 -14 -10 -9 -1 4 7 2
12 -4 12 -6 0 -8 5 -4 13 6 9 5 9 -7 0 -12 -10 -20 -9 -37 3 -20 14 -22 14
-22 0 0 -9 -5 -16 -11 -16 -6 0 -9 7 -5 15 3 8 3 15 0 15 -2 0 -7 -7 -10 -15z
m-1074 -379 c0 -3 -4 -8 -10 -11 -5 -3 -10 -1 -10 4 0 6 5 11 10 11 6 0 10 -2
10 -4z m1146 -71 c-3 -9 3 -11 17 -8 18 4 19 3 7 -6 -13 -9 -12 -11 3 -11 10
0 15 -4 12 -10 -3 -5 -1 -10 4 -10 6 0 11 -5 11 -11 0 -5 -6 -7 -12 -3 -10 6
-10 4 0 -8 10 -12 10 -18 1 -23 -8 -6 -7 -10 2 -16 11 -7 11 -9 1 -9 -7 0 -10
-4 -7 -10 3 -6 -1 -7 -9 -4 -10 4 -16 1 -16 -9 0 -9 -5 -19 -12 -23 -7 -5 -9
-2 -4 7 4 8 -1 4 -13 -9 -11 -12 -22 -18 -25 -13 -4 5 0 11 6 14 7 2 1 4 -14
3 -22 -1 -24 -4 -15 -15 10 -12 9 -13 -2 -7 -8 5 -17 3 -22 -5 -7 -12 -9 -12
-9 0 0 11 -4 9 -15 -5 -8 -10 -15 -14 -15 -8 0 6 -7 11 -15 11 -11 0 -12 -4
-4 -13 8 -10 6 -12 -11 -9 -17 3 -20 1 -15 -13 5 -13 4 -14 -6 -5 -10 10 -16
10 -28 0 -8 -6 -12 -7 -8 -1 3 6 0 11 -7 11 -8 0 -12 -7 -8 -15 4 -12 0 -14
-17 -9 -16 4 -21 2 -18 -7 3 -7 -1 -13 -9 -13 -7 0 -11 3 -9 7 2 4 -2 7 -10 7
-8 0 -13 -3 -11 -6 2 -3 -2 -12 -10 -19 -11 -10 -14 -10 -14 0 0 9 -3 9 -10
-2 -7 -11 -10 -12 -10 -2 0 10 -4 10 -15 -2 -8 -8 -24 -13 -35 -11 -13 3 -17
-1 -13 -11 4 -11 -1 -14 -21 -10 -18 3 -24 1 -20 -6 5 -7 0 -9 -14 -6 -14 4
-20 2 -15 -5 4 -6 -1 -8 -15 -5 -16 4 -19 2 -15 -10 4 -10 2 -13 -5 -8 -6 3
-14 1 -18 -5 -4 -8 -9 -7 -15 2 -7 11 -9 11 -9 -2 0 -19 -40 -34 -41 -16 0 8
-2 8 -6 0 -2 -7 -14 -13 -24 -13 -11 0 -18 -4 -15 -9 9 -14 -20 -21 -34 -8
-10 9 -11 9 -6 0 4 -8 -2 -15 -19 -19 -13 -3 -22 -10 -19 -15 3 -5 -2 -6 -10
-3 -9 3 -16 1 -16 -5 0 -6 -5 -11 -11 -11 -5 0 -7 5 -4 10 3 6 1 10 -4 10 -6
0 -11 -5 -11 -11 0 -5 -5 -7 -12 -3 -8 5 -9 2 -4 -11 7 -18 6 -18 -14 0 -20
19 -21 19 -14 -1 4 -10 3 -16 -1 -11 -5 4 -17 -1 -28 -10 -11 -10 -17 -12 -13
-5 4 6 2 12 -3 12 -6 0 -11 -4 -11 -10 0 -5 -9 -14 -20 -20 -17 -9 -19 -8 -14
7 4 13 -1 10 -16 -7 -12 -14 -19 -20 -16 -14 3 6 -1 11 -9 11 -8 0 -12 -4 -9
-9 3 -4 1 -8 -5 -8 -6 0 -7 -7 -4 -17 5 -12 3 -14 -8 -8 -12 7 -12 5 -1 -6 11
-12 14 -12 22 1 8 13 10 12 10 -2 0 -10 5 -18 11 -18 5 0 7 4 4 10 -3 6 1 7 9
4 9 -3 16 -10 16 -15 0 -5 5 -9 11 -9 5 0 8 4 5 8 -3 5 1 9 9 9 8 0 13 -3 11
-6 -2 -3 2 -12 10 -19 8 -7 14 -8 14 -2 0 5 5 10 11 10 5 0 7 -5 3 -12 -5 -7
0 -9 14 -6 11 3 30 -1 42 -9 19 -13 24 -14 32 -2 8 11 9 11 5 -3 -7 -20 16
-31 33 -15 10 9 11 9 6 0 -6 -12 5 -18 27 -14 4 0 7 -4 7 -10 0 -8 5 -8 15 1
12 10 16 9 21 -3 3 -9 12 -13 22 -10 11 5 14 2 9 -10 -3 -9 -2 -17 3 -17 6 0
10 8 10 18 1 16 1 16 11 -1 6 -9 14 -15 20 -12 5 4 9 1 9 -6 0 -10 3 -10 12
-1 9 9 15 7 25 -6 8 -9 12 -11 8 -5 -4 9 -1 11 9 7 9 -3 13 -11 9 -18 -4 -6 2
-4 12 4 10 8 16 10 12 4 -4 -7 0 -15 9 -18 8 -3 13 -2 10 3 -4 5 3 7 14 4 11
-3 20 -13 20 -22 0 -14 2 -14 10 -1 7 11 10 11 10 2 0 -7 4 -11 9 -7 6 3 15
-3 21 -12 11 -17 11 -17 6 1 -5 15 -4 17 7 8 8 -7 18 -8 22 -4 5 4 5 2 2 -4
-4 -7 0 -15 9 -18 8 -3 13 -2 10 2 -3 5 1 9 9 9 8 0 12 -4 9 -9 -5 -8 9 -12
40 -8 11 1 15 -3 12 -9 -4 -6 -2 -11 3 -11 6 0 11 6 11 13 0 8 3 7 9 -3 6 -8
8 -17 6 -20 -6 -10 37 -6 55 4 8 5 12 6 8 1 -7 -8 33 -45 48 -45 4 0 -1 7 -12
16 -10 8 -12 12 -4 8 8 -4 24 -14 34 -23 11 -9 16 -11 13 -5 -4 7 0 15 9 18 8
3 12 2 9 -4 -3 -6 1 -10 10 -10 9 0 13 4 10 10 -4 6 2 7 18 1 18 -7 26 -5 34
9 8 12 20 16 39 12 23 -4 26 -2 21 12 -5 12 -3 15 5 10 7 -4 24 -9 37 -10 17
-2 21 0 13 5 -11 6 -10 10 3 15 9 3 21 4 26 0 5 -3 9 0 9 7 0 10 3 10 11 2 13
-13 42 -6 33 8 -3 5 7 9 21 9 17 0 24 4 19 11 -5 8 -2 9 11 1 14 -7 27 -5 52
9 18 10 33 16 33 12 0 -4 7 2 15 13 8 10 15 14 15 7 0 -14 23 -11 42 5 8 6 19
8 24 4 4 -4 2 1 -5 11 -13 16 -12 17 13 8 22 -9 26 -8 26 7 0 10 3 13 8 7 10
-15 31 -13 41 4 6 9 11 10 15 2 5 -7 14 -6 30 4 12 8 26 12 30 8 4 -4 4 1 0
12 -7 18 -6 19 11 5 13 -10 16 -11 11 -2 -5 9 -3 13 5 11 29 -3 40 1 33 14 -6
9 -4 9 8 -1 11 -9 18 -10 23 -2 3 5 1 10 -6 10 -7 0 -9 3 -6 6 4 4 13 1 22 -6
12 -10 15 -10 15 0 0 7 7 10 16 6 12 -5 15 -2 10 10 -5 13 -3 14 6 7 16 -12
49 -13 42 -1 -3 5 -10 5 -16 2 -6 -4 -8 -2 -4 4 3 6 18 9 32 6 17 -3 23 -1 19
7 -5 7 0 7 16 -1 13 -7 21 -9 17 -5 -4 4 0 14 10 21 13 9 20 10 31 1 11 -9 13
-9 8 -1 -10 16 25 28 35 12 6 -10 8 -9 8 4 0 11 5 15 15 12 8 -4 15 -1 15 5 0
6 7 8 17 4 10 -4 14 -2 10 4 -5 7 1 9 15 5 14 -3 19 -1 14 6 -3 6 -1 14 5 18
7 4 9 3 6 -3 -4 -6 0 -13 8 -16 9 -4 12 -1 8 9 -4 10 0 12 13 7 10 -4 15 -2
11 4 -3 5 0 10 8 10 8 0 15 -5 15 -11 0 -5 7 -1 16 10 8 10 13 14 10 8 -3 -6
1 -11 9 -11 8 0 11 5 8 10 -4 6 2 8 15 5 15 -4 19 -2 15 8 -4 12 0 12 20 5 22
-9 25 -8 20 6 -5 12 -2 15 10 10 9 -3 19 -1 23 5 5 7 2 8 -6 3 -9 -5 -11 -4
-6 4 6 9 11 9 21 1 9 -8 15 -8 20 0 4 6 14 2 26 -12 17 -20 18 -20 12 -3 -6
17 -5 18 9 5 9 -8 14 -18 11 -22 -2 -5 3 -8 12 -8 10 0 13 -5 9 -12 -5 -7 -3
-8 5 -4 7 5 19 0 27 -10 9 -11 12 -12 8 -4 -4 8 3 5 15 -8 12 -12 27 -19 33
-16 7 4 8 2 4 -4 -4 -7 -1 -12 6 -12 8 0 20 -9 28 -20 8 -11 20 -20 28 -20 8
0 10 -5 6 -12 -5 -8 0 -7 11 2 13 10 16 11 11 2 -5 -9 -1 -15 13 -19 12 -3 21
-10 21 -15 0 -5 -5 -6 -12 -2 -7 4 -8 3 -4 -4 4 -6 13 -9 20 -6 8 3 17 0 22
-7 5 -8 3 -10 -6 -4 -9 6 -11 4 -6 -4 5 -7 15 -10 23 -7 8 3 11 1 8 -4 -3 -6
-1 -10 5 -10 7 0 9 -7 6 -16 -3 -9 -2 -12 5 -9 6 4 17 -1 25 -11 9 -11 13 -13
9 -7 -4 8 -1 11 8 7 8 -3 14 -13 13 -22 0 -9 9 -21 22 -27 12 -5 22 -18 22
-27 0 -10 4 -18 10 -18 5 0 7 8 4 18 -3 9 3 5 12 -10 10 -16 22 -28 26 -28 5
0 8 -7 8 -16 0 -8 5 -12 10 -9 6 3 10 -4 10 -17 0 -17 3 -19 9 -9 7 11 10 9
16 -8 3 -11 14 -21 23 -21 15 0 15 -2 2 -10 -12 -8 -11 -10 8 -10 22 0 26 -17
7 -33 -6 -5 -3 -7 7 -4 22 8 53 -16 45 -36 -4 -10 -2 -14 6 -11 7 2 18 -9 25
-26 8 -16 21 -30 30 -30 15 0 15 -2 2 -10 -13 -8 -12 -10 3 -10 9 0 16 -6 15
-12 -2 -7 3 -12 10 -10 8 1 11 -2 7 -8 -3 -5 -1 -10 4 -10 6 0 10 -6 9 -12 -2
-7 3 -12 10 -10 7 1 12 -5 10 -15 -2 -10 2 -17 9 -16 8 2 10 -4 6 -14 -5 -12
-3 -14 7 -8 9 5 11 4 6 -4 -4 -7 2 -20 16 -32 13 -11 16 -18 8 -14 -9 4 -8 1
3 -8 14 -11 15 -16 5 -20 -9 -4 -7 -6 4 -6 9 -1 20 -6 24 -13 4 -6 3 -8 -3 -5
-5 3 -10 0 -10 -8 0 -8 3 -14 6 -13 23 2 32 -5 29 -21 -2 -11 10 -33 26 -50
17 -17 26 -31 21 -31 -4 0 -14 8 -21 18 -13 16 -14 16 -8 -1 4 -10 15 -22 25
-28 11 -5 19 -19 19 -29 0 -11 5 -20 10 -20 6 0 9 -3 9 -7 -4 -23 2 -43 11
-38 14 9 12 -8 -2 -24 -11 -11 -10 -13 5 -8 10 4 16 3 13 -2 -3 -5 1 -14 9
-21 7 -6 11 -18 8 -26 -3 -8 0 -14 7 -14 9 0 9 -4 -1 -17 -12 -14 -12 -16 0
-8 11 6 13 3 9 -13 -3 -12 -3 -21 1 -20 20 2 30 -4 25 -16 -3 -8 0 -24 6 -36
10 -18 9 -21 -1 -14 -7 4 -3 -6 9 -23 12 -17 22 -35 22 -40 0 -4 -5 -1 -10 7
-6 9 -10 10 -10 3 0 -6 4 -14 9 -17 5 -3 14 -20 20 -36 5 -17 7 -29 3 -26 -4
2 -8 -4 -8 -14 0 -15 3 -16 14 -8 7 6 12 7 11 2 -1 -5 0 -11 1 -14 6 -17 7
-39 1 -35 -4 2 -8 -2 -8 -10 0 -8 4 -12 8 -10 4 3 10 -3 14 -13 13 -27 14 -43
4 -36 -5 3 -7 9 -4 14 3 5 2 11 -3 14 -4 2 -8 -8 -7 -24 0 -15 2 -27 5 -25 3
2 12 0 20 -6 9 -5 10 -9 3 -9 -13 0 -6 -37 11 -59 8 -11 8 -13 0 -8 -7 4 -14
0 -18 -8 -3 -8 0 -17 6 -21 7 -5 8 -2 3 6 -5 9 -4 11 4 6 9 -6 9 -11 -1 -24
-11 -14 -10 -15 7 -9 l20 7 -20 -16 c-20 -16 -19 -16 5 -11 l25 6 -24 -18
c-18 -14 -21 -20 -11 -26 9 -6 11 -4 5 5 -5 9 -4 11 4 6 7 -5 9 -16 5 -28 -4
-15 -3 -18 6 -13 9 6 11 4 5 -6 -13 -19 -15 -59 -4 -59 5 0 9 -5 9 -11 0 -5
-4 -8 -8 -5 -4 2 -8 -4 -8 -14 0 -10 4 -16 8 -13 9 5 3 -40 -7 -57 -3 -5 -1
-10 4 -10 6 0 11 -5 11 -11 0 -5 -4 -7 -10 -4 -5 3 -10 1 -10 -4 0 -6 6 -11
13 -11 8 0 7 -4 -3 -10 -8 -5 -10 -10 -4 -10 9 0 12 -59 5 -87 -3 -9 5 -18 13
-15 5 2 3 -4 -4 -13 -17 -21 -21 -58 -6 -67 7 -5 8 -11 1 -15 -13 -10 -18 -33
-7 -33 5 0 9 -7 9 -15 0 -10 -6 -14 -15 -10 -12 4 -13 3 -2 -10 7 -8 9 -15 4
-15 -5 0 -2 -5 6 -10 13 -9 13 -10 0 -11 -8 -1 -19 -1 -25 0 -5 1 -1 -6 9 -14
11 -8 14 -15 7 -15 -7 0 -9 -5 -6 -10 4 -6 12 -7 18 -3 7 3 4 -3 -6 -14 -9
-11 -14 -23 -10 -26 3 -4 2 -7 -4 -7 -6 0 -14 -7 -17 -16 -5 -13 -4 -14 7 -6
11 9 13 8 12 -6 -4 -37 -18 -72 -26 -66 -5 3 -9 1 -9 -5 0 -5 6 -12 13 -15 8
-3 6 -9 -7 -20 -20 -16 -20 -16 0 -17 17 -1 17 -2 1 -6 -9 -2 -15 -9 -11 -14
3 -6 1 -16 -6 -24 -8 -10 -8 -15 1 -21 9 -5 7 -11 -6 -21 -14 -9 -15 -13 -4
-13 11 0 11 -2 1 -9 -7 -4 -14 -14 -15 -22 -2 -8 -6 -20 -10 -26 -5 -7 -6 -17
-2 -22 3 -5 1 -12 -5 -16 -5 -3 -10 -12 -10 -18 0 -7 4 -6 10 3 5 8 10 10 10
4 0 -5 -7 -19 -16 -30 -8 -10 -12 -12 -8 -4 6 12 5 13 -7 2 -12 -11 -12 -14 1
-22 9 -6 10 -10 3 -10 -6 0 -10 -9 -8 -20 2 -11 0 -18 -4 -15 -11 6 -24 -23
-24 -52 0 -13 -4 -23 -9 -23 -5 0 -6 -4 -3 -10 3 -5 1 -10 -5 -10 -6 0 -8 -4
-5 -10 3 -5 1 -10 -5 -10 -7 0 -10 -7 -6 -15 3 -10 -1 -15 -11 -15 -14 0 -14
-2 3 -16 10 -8 14 -13 7 -10 -11 6 -30 -29 -25 -47 1 -5 -2 -6 -8 -2 -6 3 -10
-3 -10 -15 0 -13 -4 -19 -11 -14 -7 4 -10 1 -7 -7 3 -8 -2 -20 -11 -27 -13
-11 -13 -12 -1 -6 8 4 5 -3 -7 -15 -27 -25 -31 -40 -6 -20 9 8 6 0 -7 -19 -17
-23 -26 -28 -32 -20 -4 7 -8 8 -8 3 0 -6 5 -16 12 -23 9 -9 9 -12 0 -12 -7 0
-12 -7 -12 -15 0 -8 -8 -19 -19 -24 -10 -6 -22 -18 -25 -27 -5 -12 -3 -14 7
-8 7 5 5 2 -5 -7 -9 -9 -14 -19 -11 -23 4 -3 1 -6 -6 -6 -7 0 -9 -5 -5 -12 5
-8 2 -9 -11 -4 -15 5 -16 4 -5 -9 7 -9 9 -15 4 -14 -5 1 -11 0 -14 -1 -30 -11
-38 -7 -29 17 12 32 11 36 -3 27 -9 -5 -9 -2 1 9 11 14 11 17 0 17 -8 0 -6 5
6 13 14 11 15 16 5 22 -9 6 -11 4 -5 -5 5 -9 4 -11 -4 -6 -9 6 -9 11 0 22 6 8
8 14 3 14 -5 0 -2 5 6 10 13 9 13 10 0 11 -8 1 -19 1 -24 0 -5 -1 -3 5 4 14
16 19 23 48 10 40 -4 -3 -10 4 -13 15 -3 11 0 23 5 27 7 3 8 1 4 -5 -4 -7 -2
-12 3 -12 14 0 14 17 1 25 -6 4 -7 12 -3 18 11 18 12 38 2 31 -5 -3 -6 -10 -3
-16 4 -7 2 -8 -4 -4 -9 5 -9 13 -2 26 14 27 12 40 -6 40 -8 0 -12 5 -9 10 4 6
12 7 18 4 7 -4 9 -4 5 1 -4 4 -2 15 5 24 10 14 10 14 -4 3 -14 -10 -18 -10
-22 2 -4 9 -1 18 5 22 7 5 8 2 3 -6 -6 -9 -4 -11 5 -5 10 6 9 11 -5 22 -14 9
-15 13 -4 13 12 0 12 2 -1 10 -13 8 -13 13 -2 31 10 15 10 19 1 13 -9 -5 -11
-1 -7 14 4 12 2 22 -3 22 -5 0 -4 11 1 25 6 15 6 26 0 30 -6 4 -6 14 2 28 10
19 9 20 -4 10 -12 -10 -14 -10 -13 5 0 9 4 23 9 30 4 6 2 12 -3 12 -6 0 -11
14 -11 30 0 17 5 30 13 30 9 0 8 3 -2 9 -8 5 -10 14 -6 21 5 9 4 11 -3 6 -7
-4 -12 -3 -12 3 0 5 5 13 11 16 7 5 4 14 -7 26 -13 15 -14 19 -3 20 10 0 11 2
2 6 -7 2 -13 9 -13 14 0 6 5 7 12 3 6 -4 4 3 -5 15 -8 13 -13 30 -10 39 5 11
3 13 -8 7 -12 -8 -12 -6 0 9 10 11 11 20 4 24 -13 9 -23 62 -11 62 5 0 6 5 2
12 -4 7 -8 23 -9 37 0 13 -7 27 -14 29 -11 4 -11 6 0 13 11 7 9 9 -5 9 -16 0
-17 3 -8 12 17 17 15 31 -4 24 -13 -5 -14 -3 -7 6 5 7 8 19 7 26 -1 6 -2 17
-3 23 0 5 -6 7 -12 3 -7 -4 -7 1 1 16 8 15 8 20 1 16 -7 -5 -11 4 -12 23 -2
40 -3 43 -13 60 -6 9 -5 12 1 8 5 -3 10 1 10 9 0 8 -6 13 -13 10 -9 -3 -11 1
-7 11 5 11 3 14 -6 8 -10 -6 -11 -3 -2 13 7 14 8 23 1 27 -6 4 -8 11 -5 16 4
5 -1 9 -9 9 -9 0 -16 5 -16 11 0 5 5 7 10 4 6 -3 10 -1 10 4 0 6 -5 11 -11 11
-5 0 -7 5 -4 11 4 5 -1 20 -12 31 -10 12 -12 18 -5 14 6 -4 12 -2 12 3 0 6 -4
11 -10 11 -5 0 -10 9 -10 20 0 11 -5 20 -11 20 -8 0 -8 4 0 14 9 11 9 16 0 22
-8 5 -10 3 -4 -7 5 -8 4 -11 -1 -6 -5 5 -9 12 -9 15 0 4 -4 13 -9 21 -6 9 -5
12 2 7 6 -3 14 -2 17 4 4 6 3 10 -2 9 -18 -3 -47 3 -35 8 18 7 15 22 -10 45
-13 11 -17 16 -10 13 21 -11 11 26 -15 54 -12 13 -19 30 -16 37 3 8 -1 14 -8
14 -11 0 -11 3 1 10 12 7 12 10 1 10 -7 0 -11 6 -7 15 3 9 0 15 -10 15 -11 0
-15 6 -11 20 3 12 -2 25 -12 33 -10 6 -21 25 -25 40 -3 15 -11 25 -16 22 -6
-3 -10 3 -10 15 0 14 -4 19 -12 14 -8 -5 -7 0 2 11 9 11 10 16 3 11 -9 -4 -13
-1 -13 10 0 9 -10 25 -22 35 -11 11 -18 19 -13 19 4 0 -1 8 -12 18 -10 9 -14
15 -8 12 6 -3 2 4 -10 15 -11 11 -27 29 -35 40 -14 19 -14 19 5 6 11 -8 3 2
-18 23 -21 21 -36 44 -33 51 3 9 -1 12 -15 10 -11 -2 -17 0 -14 5 3 5 -5 19
-19 31 -14 12 -23 26 -20 31 3 4 -2 8 -10 8 -8 0 -18 10 -21 21 -6 17 -9 19
-17 8 -7 -10 -8 -8 -5 8 3 12 2 22 -2 21 -19 -2 -31 3 -26 12 3 6 -1 10 -10
10 -8 0 -20 10 -25 23 -8 20 -9 21 -10 2 -1 -16 -4 -15 -12 8 -5 15 -14 27
-20 27 -5 0 -16 7 -25 15 -8 8 -19 12 -25 9 -6 -4 -8 -3 -5 2 3 6 2 16 -4 24
-6 10 -9 11 -9 3 0 -8 -9 -5 -24 8 -13 11 -23 28 -21 37 2 10 4 21 4 25 1 5 4
6 9 4 4 -3 7 8 7 23 1 16 -3 26 -7 24 -5 -3 -6 -9 -3 -14 3 -5 1 -11 -4 -15
-6 -3 -8 4 -5 17 3 13 7 34 9 48 2 14 6 36 9 48 4 17 1 22 -8 19 -14 -6 -15
28 -1 40 4 5 5 2 1 -4 -4 -7 -3 -13 3 -13 5 0 9 9 8 19 0 11 -4 18 -8 15 -4
-2 -9 5 -12 16 -3 11 0 23 5 27 7 3 8 1 4 -5 -4 -7 -3 -12 3 -12 5 0 9 9 8 20
-1 12 -7 18 -14 16 -13 -6 -7 19 11 43 8 11 8 13 0 8 -7 -4 -15 0 -18 9 -3 8
-2 12 4 9 13 -8 13 1 -2 28 -10 19 -9 20 3 10 12 -10 15 -8 15 7 0 10 -4 16
-8 14 -13 -8 -9 11 5 25 10 12 9 13 -7 7 -19 -7 -19 -6 -1 14 18 19 18 21 -1
42 -10 12 -14 18 -8 15 14 -8 26 17 18 38 -4 8 -14 15 -23 15 -14 -1 -14 -2 2
-11 9 -5 17 -15 17 -20 0 -6 -7 -3 -16 5 -8 9 -20 16 -25 16 -6 0 -7 5 -3 12
4 7 3 8 -5 4 -6 -4 -9 -12 -5 -18 3 -5 -2 -9 -12 -8 -34 4 -45 0 -38 -12 5 -8
2 -9 -9 -5 -10 4 -17 2 -17 -5 0 -6 -6 -5 -17 3 -11 10 -14 10 -9 2 4 -8 2
-13 -4 -13 -6 0 -9 -4 -5 -9 3 -6 -4 -8 -16 -6 -13 3 -29 -1 -37 -7 -10 -9
-16 -8 -23 3 -7 12 -9 11 -9 -2 0 -22 -24 -31 -39 -16 -7 7 -12 8 -11 2 5 -22
-1 -27 -17 -14 -15 12 -16 12 -10 -5 6 -16 5 -17 -8 -6 -12 10 -15 10 -15 0 0
-7 -7 -10 -15 -6 -8 3 -15 1 -15 -5 0 -6 -4 -8 -9 -5 -5 3 -12 -1 -15 -10 -6
-15 -8 -15 -26 1 -18 16 -18 16 -13 -7 4 -18 3 -20 -6 -8 -8 11 -11 12 -11 2
0 -7 -4 -11 -9 -8 -5 4 -11 2 -13 -3 -3 -9 -38 -18 -76 -20 -7 -1 -11 -5 -8
-9 3 -5 -1 -9 -9 -9 -8 0 -12 5 -8 10 3 5 -5 3 -18 -4 -13 -7 -28 -12 -33 -11
-5 2 -6 -5 -2 -15 5 -16 4 -15 -9 1 -9 12 -15 15 -15 7 0 -8 -7 -11 -19 -8
-14 3 -18 1 -14 -9 3 -8 1 -14 -5 -14 -6 0 -13 6 -15 13 -4 8 -6 6 -6 -4 -1
-11 -9 -15 -27 -13 -14 1 -23 0 -20 -3 12 -13 -39 -30 -58 -20 -16 8 -18 6
-12 -8 6 -16 4 -16 -11 -4 -9 8 -14 9 -10 3 8 -13 -15 -21 -55 -20 -19 1 -24
-2 -18 -10 10 -12 6 -13 -59 -15 -31 -2 -38 -5 -33 -18 5 -14 3 -14 -10 -3
-11 9 -18 10 -23 2 -3 -6 -11 -7 -17 -4 -7 4 -8 2 -4 -4 4 -7 1 -12 -6 -13
-76 -5 -88 -5 -88 5 0 6 -5 3 -11 -7 -10 -18 -12 -18 -30 -1 -15 13 -19 14
-19 3 -1 -10 -5 -8 -15 5 -11 14 -15 16 -15 5 0 -12 -2 -12 -9 0 -5 7 -13 11
-19 7 -6 -3 -18 1 -26 10 -9 8 -16 12 -16 7 0 -4 -5 -1 -10 7 -8 12 -10 12
-10 1 0 -11 -3 -11 -15 -1 -8 6 -19 9 -24 6 -6 -4 -15 3 -21 14 -9 16 -15 18
-30 10 -25 -13 -39 -13 -20 1 12 9 11 10 -7 6 -17 -4 -20 -1 -15 12 5 14 4 14
-13 1 -17 -13 -18 -13 -13 0 5 13 -1 15 -28 12 -22 -3 -34 0 -34 7 0 7 5 9 12
5 6 -4 8 -3 5 4 -4 5 -17 8 -29 4 -13 -3 -19 -1 -15 5 3 5 0 10 -8 10 -8 0
-11 -5 -8 -11 4 -6 -4 -2 -17 9 -13 11 -20 14 -16 8 11 -20 -1 -15 -23 8 -13
14 -21 17 -26 9 -5 -8 -12 -6 -22 7 -8 10 -12 13 -9 6 4 -7 -1 -11 -14 -10
-15 1 -19 7 -15 22 3 11 2 14 -1 8 -3 -7 -12 -13 -20 -13 -9 0 -13 4 -10 9 3
5 0 9 -7 8 -41 -1 -58 4 -51 16 6 9 5 9 -7 1 -11 -9 -17 -9 -26 1 -6 7 -9 17
-5 21 4 5 -3 0 -16 -11 -18 -15 -22 -16 -17 -3 5 13 2 15 -13 11 -10 -2 -27 3
-36 12 -9 9 -23 14 -31 11 -8 -3 -15 -1 -15 5 0 6 -4 7 -10 4 -5 -3 -10 -1
-10 6 0 8 -5 7 -17 -2 -9 -8 -14 -9 -10 -3 4 7 0 17 -8 24 -8 7 -15 9 -15 6 0
-4 -10 -2 -21 5 -13 7 -19 7 -15 1 3 -6 2 -13 -4 -17 -5 -3 -10 1 -10 9 0 8
-5 18 -12 22 -6 4 -8 3 -4 -4 10 -17 -21 -8 -45 14 -12 10 -19 13 -15 7 10
-17 -2 -16 -19 1 -8 7 -11 17 -7 20 3 4 -1 4 -11 0 -9 -3 -14 -11 -11 -18 3
-6 -1 -3 -9 7 -8 9 -18 17 -22 17 -5 0 -5 -3 -2 -7 4 -3 -1 -12 -11 -20 -10
-9 -11 -11 -2 -7 13 7 13 5 2 -8 -9 -11 -9 -17 -2 -20 6 -2 8 -11 5 -21 -4 -9
-11 -14 -16 -11 -5 3 -7 -1 -4 -8 9 -24 12 -78 4 -73 -4 3 -11 0 -15 -6 -4 -7
-3 -9 2 -6 6 3 16 2 24 -4 12 -7 12 -9 -3 -9 -10 0 -15 -5 -12 -11 4 -6 13 -8
21 -5 8 3 11 0 8 -8 -3 -8 0 -17 7 -22 7 -4 10 -3 6 3 -3 5 0 10 8 10 8 0 13
-3 12 -6 -1 -3 4 -16 11 -27 6 -12 8 -24 5 -28 -3 -3 3 -6 15 -6 12 0 22 -5
22 -11 0 -5 -4 -7 -10 -4 -6 3 -7 -1 -4 -9 3 -9 10 -16 16 -16 5 0 7 -4 4 -9
-3 -4 1 -17 8 -27 10 -13 11 -23 4 -31 -7 -9 -7 -13 2 -13 8 0 11 -3 8 -6 -4
-3 -2 -19 2 -36 8 -27 7 -28 -7 -16 -9 7 -14 8 -10 2 3 -6 -1 -20 -9 -30 -9
-10 -13 -12 -9 -4 3 8 -7 0 -23 -17 -15 -18 -35 -33 -43 -33 -12 0 -11 -2 1
-10 13 -8 12 -10 -3 -10 -10 0 -15 -5 -12 -10 4 -6 1 -9 -7 -8 -7 2 -12 -2
-11 -9 2 -7 -6 -10 -17 -8 -12 2 -18 0 -14 -6 3 -6 -3 -17 -15 -25 -12 -9 -19
-20 -16 -25 6 -8 -8 -13 -27 -10 -4 0 -5 -6 -2 -14 4 -10 0 -15 -11 -15 -9 0
-13 -4 -10 -10 3 -5 2 -10 -3 -10 -6 0 -9 -8 -8 -17 0 -10 -6 -18 -14 -18 -8
-1 -14 -5 -13 -11 1 -5 -6 -15 -16 -21 -16 -10 -18 -8 -16 28 1 23 -2 36 -7
33 -6 -4 -5 4 2 16 11 20 10 22 -5 16 -15 -5 -16 -4 -6 8 7 9 10 24 6 37 -5
15 -4 19 5 14 9 -6 9 -3 1 12 -6 11 -7 23 -4 27 3 3 1 6 -5 6 -7 0 -11 3 -11
8 3 18 -2 33 -9 28 -5 -3 -9 1 -9 8 0 8 6 12 13 9 6 -2 15 1 20 8 4 8 3 10 -4
5 -8 -4 -10 -2 -6 8 3 9 12 12 22 9 12 -5 14 -2 9 11 -4 10 -3 15 3 11 6 -3
10 -1 10 5 0 6 4 9 9 6 4 -3 6 6 3 21 -3 18 -1 24 7 19 15 -10 14 7 -1 23 -11
10 -9 11 5 5 15 -5 16 -3 7 20 -8 21 -7 26 3 21 6 -4 1 3 -13 15 -14 12 -19
19 -12 15 6 -3 12 -2 12 2 0 5 -6 15 -12 22 -11 11 -10 12 0 6 22 -12 -2 25
-34 55 -15 14 -24 19 -20 13 4 -8 2 -13 -4 -13 -7 0 -9 8 -5 20 4 12 2 20 -5
20 -8 0 -8 6 0 20 8 14 8 20 0 20 -6 0 -8 5 -5 10 4 6 12 7 18 4 8 -5 8 -3 0
7 -16 16 -17 33 -2 23 7 -4 7 1 -1 16 -11 20 -10 22 5 16 14 -5 16 -4 6 8 -9
11 -8 15 4 20 9 3 13 10 10 16 -12 20 -14 51 -3 44 7 -5 9 0 6 14 -4 12 0 23
8 26 7 3 11 14 9 26 -2 11 0 18 6 15 5 -4 9 5 9 18 0 14 10 32 23 41 12 9 15
14 7 11 -8 -4 -4 3 10 15 14 12 19 18 11 14 -9 -5 -12 -3 -7 4 4 7 14 12 22
12 8 0 13 4 10 8 -2 4 4 14 16 21 15 9 18 10 13 0 -6 -8 -4 -10 4 -5 7 5 10
15 6 23 -5 14 -3 14 12 2 10 -9 14 -9 10 -2 -5 8 1 15 19 19 19 5 22 9 12 15
-13 9 -11 10 25 13 6 1 18 8 25 16 12 13 13 13 7 0 -4 -9 0 -7 9 4 8 10 20 15
27 10 8 -4 10 -3 5 4 -5 8 2 12 19 12 17 0 24 4 19 12 -5 8 -2 9 9 5 10 -3 17
-2 17 4 0 6 5 7 10 4 6 -4 7 -11 4 -17 -4 -7 -2 -8 5 -4 6 4 9 12 6 17 -4 5
-1 9 5 9 6 0 9 4 6 9 -4 5 3 7 14 4 13 -3 22 1 26 11 5 12 10 14 19 6 10 -8
15 -8 21 1 5 8 3 9 -6 4 -9 -5 -11 -4 -6 3 4 7 17 12 28 12 11 0 27 8 34 18
13 16 14 16 8 -3 -5 -17 -3 -16 16 5 17 19 20 21 16 6 -5 -14 -3 -16 6 -9 23
18 110 64 104 55 -3 -5 1 -9 9 -9 8 0 12 4 9 9 -3 4 2 8 11 8 10 0 13 5 9 13
-5 7 0 6 11 -3 15 -12 17 -12 10 -1 -6 11 -4 13 9 8 10 -4 19 -1 22 8 4 8 10
15 16 15 5 0 6 -5 3 -11 -4 -6 2 -5 13 2 12 7 18 17 15 23 -4 5 -1 6 8 0 22
-14 37 -13 50 2 6 8 16 11 22 7 5 -3 7 -1 4 4 -8 12 17 26 48 28 11 0 19 7 17
15 -2 10 0 11 11 2 10 -9 17 -7 31 9 14 16 20 18 31 9 12 -10 16 -9 21 4 5 12
10 14 19 6 9 -8 15 -8 20 0 3 6 10 8 15 5 5 -3 14 4 21 16 9 17 13 19 20 8 7
-12 9 -12 9 0 0 11 3 11 17 0 11 -10 14 -10 9 -1 -4 7 -2 12 4 12 6 0 8 5 4
13 -5 7 0 6 11 -3 11 -9 16 -10 11 -2 -4 7 -1 12 8 12 9 0 16 6 16 13 0 8 4 7
10 -3 8 -12 12 -12 18 -2 5 7 19 14 32 17 12 2 25 7 28 10 9 8 33 -17 28 -30z
m-494 -147 c-7 -7 -12 -8 -12 -2 0 14 12 26 19 19 2 -3 -1 -11 -7 -17z m2229
-121 c-10 -9 -11 -8 -5 6 3 10 9 15 12 12 3 -3 0 -11 -7 -18z m-3421 -23 c0
-8 -19 -13 -24 -6 -3 5 1 9 9 9 8 0 15 -2 15 -3z m174 -326 c-1 -13 -3 -23 -4
-23 -2 0 -8 -33 -12 -62 -1 -10 -5 -10 -15 -1 -11 8 -12 7 -7 -6 3 -9 11 -16
18 -17 6 0 2 -4 -9 -9 -11 -5 -15 -9 -8 -9 7 -1 10 -8 7 -16 -4 -8 -11 -12
-18 -8 -6 4 -5 -1 3 -11 13 -15 13 -19 0 -26 -12 -8 -11 -12 6 -25 11 -9 15
-14 8 -10 -14 6 -29 -37 -19 -54 4 -5 1 -13 -5 -17 -8 -4 -9 -3 -5 4 4 7 2 12
-5 12 -6 0 -9 -8 -6 -19 3 -14 1 -18 -10 -14 -9 4 -16 -2 -20 -16 -3 -11 -10
-21 -15 -21 -5 0 -6 6 -2 13 4 6 3 8 -1 4 -5 -4 -10 -15 -11 -25 -2 -9 -8 -18
-13 -20 -6 -2 -11 -15 -11 -28 0 -14 -4 -23 -8 -20 -10 6 -8 -51 1 -61 4 -3 2
-12 -4 -19 -7 -9 -5 -14 11 -19 17 -5 19 -9 9 -21 -8 -9 -8 -14 -2 -12 6 2 12
-1 14 -7 5 -16 33 -45 42 -45 30 0 43 -46 23 -79 -6 -9 -5 -12 1 -8 5 3 10 0
10 -8 0 -8 -4 -12 -9 -9 -5 4 -9 0 -7 -7 4 -34 -2 -70 -11 -64 -6 3 -7 -1 -4
-9 4 -9 1 -16 -6 -16 -10 0 -10 -3 0 -15 10 -12 9 -15 -6 -15 -11 0 -15 -3 -8
-8 11 -8 14 -53 2 -46 -4 3 -12 -5 -18 -16 -6 -11 -8 -20 -4 -20 3 0 0 -7 -7
-16 -13 -15 -19 -34 -21 -62 -1 -7 -8 -10 -17 -7 -13 5 -14 4 -3 -6 6 -7 12
-17 12 -21 0 -4 -6 -7 -12 -5 -7 1 -12 -4 -11 -10 2 -7 -2 -13 -8 -13 -8 0 -7
-5 1 -15 11 -13 10 -14 -5 -8 -15 5 -17 3 -12 -11 4 -10 3 -15 -3 -11 -6 3
-10 1 -10 -5 0 -6 -5 -8 -10 -5 -6 4 -10 3 -9 -2 3 -14 -18 -58 -27 -56 -5 0
-8 -3 -7 -8 2 -5 -2 -9 -7 -9 -5 0 -9 -6 -7 -12 1 -7 -4 -12 -10 -11 -12 3
-17 -9 -14 -29 0 -5 -2 -7 -7 -7 -22 4 -34 -3 -29 -15 4 -10 0 -14 -13 -11
-12 2 -17 -1 -14 -10 3 -7 0 -16 -5 -20 -6 -3 -8 -12 -4 -18 4 -7 -1 -6 -10 2
-15 12 -17 12 -11 -3 3 -9 13 -16 21 -16 10 0 13 -6 9 -16 -5 -14 -4 -15 9 -4
12 10 15 10 15 -4 0 -10 4 -15 9 -11 6 3 13 0 18 -7 4 -7 15 -13 23 -13 8 0
14 -7 12 -15 -3 -12 -1 -13 9 -2 15 14 33 16 24 2 -3 -5 1 -10 9 -10 9 0 16
-4 16 -9 0 -5 7 -12 16 -15 12 -5 14 -3 8 7 -5 7 -2 5 8 -5 9 -10 23 -18 32
-18 13 0 14 -5 6 -26 -8 -19 -7 -23 3 -18 9 6 9 5 0 -8 -7 -8 -9 -19 -5 -23 4
-5 -1 -5 -11 -2 -15 6 -16 4 -7 -13 8 -15 6 -21 -7 -29 -13 -8 -14 -10 -4 -11
11 0 9 -4 -5 -15 -14 -10 -15 -14 -5 -15 11 0 9 -4 -5 -15 -16 -13 -16 -14 -1
-9 9 3 17 1 17 -5 0 -6 -6 -11 -14 -11 -9 0 -13 -9 -12 -25 2 -14 -1 -22 -7
-18 -6 3 -8 -6 -5 -25 2 -17 1 -29 -3 -26 -4 2 -10 0 -14 -6 -3 -5 0 -10 7
-10 10 0 9 -3 -2 -9 -8 -6 -18 -7 -22 -5 -4 3 -5 -2 -2 -10 3 -9 10 -13 15
-10 5 3 9 0 9 -5 0 -6 -5 -11 -10 -11 -6 0 -9 -6 -8 -12 2 -7 -4 -12 -12 -10
-10 1 -9 -2 4 -13 18 -14 15 -20 -9 -15 -5 1 -7 -2 -3 -6 4 -4 2 -14 -5 -22
-10 -13 -9 -15 7 -8 20 7 20 7 0 -15 -10 -12 -13 -19 -7 -15 9 5 11 2 7 -8 -3
-9 -11 -13 -18 -10 -6 3 -2 -2 8 -10 18 -15 18 -16 2 -16 -9 0 -14 -5 -11 -11
4 -5 -1 -20 -12 -31 -18 -21 -18 -21 7 -8 l25 13 -19 -22 c-11 -12 -21 -32
-23 -44 -2 -17 -1 -19 7 -7 5 8 10 10 10 4 0 -6 -6 -17 -14 -23 -8 -7 -12 -21
-8 -33 3 -14 1 -19 -6 -14 -7 4 -8 -3 -2 -25 7 -25 6 -30 -5 -25 -9 3 -12 0
-9 -9 3 -8 13 -11 22 -9 9 3 6 -1 -7 -9 -15 -9 -20 -17 -12 -21 8 -5 7 -12 -4
-22 -11 -12 -12 -20 -5 -35 8 -14 7 -19 -2 -19 -10 0 -10 -2 1 -9 11 -7 10
-11 -5 -20 -11 -6 -14 -11 -7 -11 7 0 11 -12 10 -29 -2 -24 -5 -27 -16 -18
-12 10 -12 8 -2 -12 10 -18 10 -25 1 -31 -9 -5 -9 -9 -1 -14 6 -4 11 -13 11
-19 0 -7 -4 -6 -10 3 -8 13 -10 13 -11 -2 -1 -10 -2 -24 -3 -30 -1 -7 1 -18 5
-23 4 -6 4 -17 -1 -25 -14 -21 -12 -32 3 -24 6 4 3 -3 -8 -16 -11 -13 -14 -20
-7 -16 6 4 12 5 12 2 0 -2 3 -11 6 -20 3 -9 1 -16 -6 -16 -6 0 -8 5 -5 10 3 6
1 10 -5 10 -6 0 -8 -10 -4 -25 4 -17 2 -25 -7 -25 -11 0 -11 -2 1 -9 8 -6 18
-7 24 -4 5 3 6 1 2 -5 -4 -7 -14 -12 -22 -12 -8 0 -14 -5 -14 -11 0 -6 6 -9
13 -6 7 3 13 -3 13 -13 0 -10 -5 -16 -11 -13 -7 2 -12 -3 -12 -12 0 -10 6 -14
16 -10 13 5 13 4 0 -12 -11 -13 -15 -37 -13 -83 1 -36 -2 -70 -8 -77 -6 -8 -5
-19 2 -34 11 -19 10 -21 -3 -16 -11 4 -14 2 -10 -8 3 -8 8 -13 13 -10 4 2 5
-8 3 -23 -2 -15 -4 -44 -4 -64 1 -24 -4 -38 -12 -38 -8 0 -9 -3 -1 -8 14 -9
17 -75 2 -66 -5 4 -2 -5 7 -20 17 -25 17 -26 -1 -19 -18 6 -18 5 1 -17 11 -13
15 -20 9 -17 -7 4 -14 0 -17 -7 -3 -8 -2 -17 4 -20 5 -2 4 -3 -3 -2 -7 2 -12
9 -10 16 2 11 -1 10 -15 0 -10 -8 -15 -11 -11 -6 4 5 0 15 -8 23 -8 9 -12 23
-9 31 3 9 3 13 -1 9 -9 -9 -45 33 -38 44 3 5 -1 9 -9 9 -8 0 -18 7 -21 16 -5
12 -3 14 7 8 7 -5 5 -1 -6 8 -11 10 -15 23 -11 30 4 7 4 10 0 6 -12 -10 -45
23 -39 38 3 8 1 14 -5 14 -5 0 -13 7 -16 16 -5 14 -4 15 9 4 13 -11 14 -10 9
4 -5 14 -17 20 -35 18 -4 -1 -4 8 -1 20 4 17 2 20 -13 14 -14 -5 -15 -4 -7 7
8 10 6 16 -8 24 -10 7 -17 20 -16 30 2 10 -4 24 -13 31 -13 11 -13 12 -1 7 8
-4 6 1 -4 9 -14 11 -15 16 -6 16 9 0 8 5 -6 16 -10 8 -12 13 -4 9 8 -4 7 0 -4
9 -11 9 -17 23 -13 35 3 15 1 18 -11 14 -10 -4 -13 -2 -8 5 4 7 3 12 -2 12 -6
0 -8 9 -5 20 3 11 0 20 -6 20 -6 0 -8 7 -4 17 4 10 2 14 -4 10 -6 -4 -13 0
-17 8 -3 8 -1 17 4 20 6 4 5 14 -2 25 -7 10 -17 16 -23 12 -5 -3 -4 2 4 11 9
12 10 17 2 17 -7 0 -10 4 -7 9 3 5 -1 14 -9 21 -11 9 -12 16 -5 25 8 9 8 15 0
20 -5 3 -10 15 -10 26 0 10 -6 19 -12 19 -10 0 -10 2 0 9 11 7 10 9 -3 14 -13
5 -14 11 -5 27 6 11 7 19 3 18 -4 -2 -8 2 -8 7 0 6 4 9 8 7 5 -1 6 2 2 8 -3 6
-11 8 -16 5 -5 -4 -9 -1 -9 4 0 6 5 11 11 11 6 0 5 6 -3 14 -8 7 -13 30 -13
50 1 20 -2 36 -5 36 -4 0 -7 10 -6 23 1 12 -5 28 -14 35 -13 10 -12 11 5 6 20
-6 20 -5 1 10 -20 16 -20 16 0 17 18 0 18 1 -1 9 -13 6 -15 9 -5 9 13 1 13 2
0 11 -13 9 -13 10 0 10 11 0 12 2 3 8 -17 11 -23 54 -9 71 8 11 8 13 0 8 -7
-4 -14 0 -17 8 -4 10 -1 12 11 9 16 -5 16 -4 0 7 -15 12 -15 14 -1 24 13 10
13 14 3 20 -9 6 -11 4 -5 -5 5 -9 4 -11 -4 -6 -9 6 -9 11 0 22 6 8 8 14 4 14
-4 0 -2 7 5 15 11 13 10 14 -1 10 -10 -4 -15 1 -15 14 0 14 4 17 12 10 9 -8
11 -5 7 10 -3 12 -10 18 -16 14 -6 -4 -7 -1 -1 8 12 20 12 73 0 81 -7 5 -7 8
2 8 6 0 12 5 12 11 0 5 -6 7 -13 3 -9 -6 -9 -4 1 7 16 17 16 32 -1 23 -9 -5
-9 -4 0 6 6 7 9 19 6 26 -3 8 1 14 8 14 8 0 5 6 -7 16 -10 8 -14 13 -8 10 7
-3 14 3 17 14 3 11 1 17 -4 14 -6 -3 -7 6 -3 22 4 16 7 34 7 41 0 7 5 13 11
13 6 0 4 4 -4 10 -12 7 -11 12 5 30 19 21 19 21 -1 15 -16 -6 -17 -5 -4 7 16
14 20 42 7 54 -4 4 1 16 10 27 10 11 12 17 6 13 -10 -5 -11 -1 -3 18 5 14 7
34 5 45 -2 11 -1 20 3 20 20 -3 25 2 12 11 -12 8 -12 10 -1 10 11 0 11 3 1 15
-11 13 -10 14 6 8 16 -6 17 -5 6 9 -11 14 -10 18 5 27 13 8 14 10 4 11 -12 0
-12 3 -3 12 9 9 9 15 -1 27 -9 12 -9 13 1 7 19 -11 35 3 21 20 -9 11 -9 14 0
14 7 0 9 5 6 10 -3 6 -2 10 3 10 6 0 8 10 4 22 -4 15 -2 19 7 13 9 -5 12 0 9
16 -2 17 1 23 11 21 12 -3 12 0 1 12 -9 12 -10 16 0 16 7 0 10 7 6 15 -3 10 1
15 12 16 11 0 13 2 4 6 -10 4 -9 10 5 26 10 11 12 17 6 13 -15 -8 -16 -5 -7
18 3 9 10 13 15 10 5 -3 9 4 9 16 0 14 4 19 13 14 9 -6 9 -4 -1 8 -9 11 -10
18 -2 23 6 3 7 11 4 17 -4 7 -2 8 4 4 7 -4 12 -2 12 4 0 6 4 9 8 6 4 -3 7 9 6
25 -2 26 0 28 14 17 13 -12 14 -10 3 10 -10 19 -9 22 5 22 14 0 15 2 3 17 -12
14 -12 16 0 8 11 -6 13 -4 8 8 -4 11 -2 14 7 11 8 -3 17 0 22 7 4 8 3 10 -4 5
-7 -4 -12 -2 -12 3 0 6 5 11 11 11 6 0 8 7 5 16 -3 8 -2 12 4 9 6 -3 10 1 10
9 0 9 4 16 10 16 5 0 9 3 9 8 -3 18 2 33 9 28 4 -2 12 7 19 20 8 18 8 22 0 17
-7 -3 -3 3 8 14 11 11 23 19 27 16 4 -2 5 5 3 17 -2 11 1 23 7 26 7 5 8 2 3
-7 -4 -8 1 -6 11 4 16 15 17 19 4 27 -12 8 -10 10 10 10 20 0 22 2 10 10 -11
7 -12 10 -2 10 17 0 43 26 35 34 -10 10 19 37 34 32 11 -5 11 -1 2 15 -8 15
-8 19 0 15 6 -4 11 -2 11 4 0 6 5 8 12 4 8 -5 9 -2 5 9 -4 12 -1 17 10 17 9 0
13 3 9 7 -3 4 4 13 16 20 13 7 17 12 10 13 -7 0 -10 5 -7 10 4 6 10 8 14 5 5
-2 17 5 27 18 19 21 19 21 -1 7 -19 -14 -19 -14 -6 3 8 10 21 15 29 12 12 -4
13 -3 2 10 -8 9 -8 15 -2 15 17 0 161 147 154 156 -4 5 1 2 11 -5 15 -12 17
-12 12 2 -4 8 -1 18 6 23 8 5 10 3 4 -7 -4 -8 1 -5 12 6 11 11 18 23 16 28 -2
4 1 6 9 5 7 -2 12 3 10 10 -1 8 2 11 8 7 5 -3 10 -2 10 4 0 5 8 12 18 14 9 3
17 5 18 6 0 0 0 -9 -2 -21z m1946 -82 c0 -3 -4 -8 -10 -11 -5 -3 -10 -1 -10 4
0 6 5 11 10 11 6 0 10 -2 10 -4z m-120 -40 c0 -3 -4 -8 -10 -11 -5 -3 -10 -1
-10 4 0 6 5 11 10 11 6 0 10 -2 10 -4z m-1260 -26 c0 -5 -5 -10 -11 -10 -5 0
-7 5 -4 10 3 6 8 10 11 10 2 0 4 -4 4 -10z m2070 -10 c0 -5 -2 -10 -4 -10 -3
0 -8 5 -11 10 -3 6 -1 10 4 10 6 0 11 -4 11 -10z m-2465 -200 c3 -5 1 -10 -4
-10 -6 0 -11 5 -11 10 0 6 2 10 4 10 3 0 8 -4 11 -10z m455 -538 c0 -10 3 -13
8 -7 10 14 32 17 32 5 0 -5 9 -10 20 -10 11 0 20 -4 20 -10 0 -5 9 -10 21 -10
13 0 18 4 14 13 -4 6 2 2 13 -10 13 -15 32 -23 51 -23 17 0 31 -4 31 -9 0 -5
12 -8 26 -6 16 1 34 -5 45 -16 17 -17 19 -17 19 -2 0 15 1 15 13 -2 9 -11 16
-14 20 -7 8 12 47 4 47 -9 0 -5 5 -9 11 -9 6 0 9 7 5 15 -4 12 -2 13 13 6 10
-6 22 -7 26 -3 5 4 5 2 2 -4 -9 -16 10 -22 56 -18 26 2 36 0 31 -8 -4 -7 -3
-8 4 -4 23 14 51 14 62 1 9 -11 17 -12 33 -4 17 9 19 9 14 -4 -4 -11 -2 -14 8
-10 8 3 12 10 8 17 -3 6 3 3 15 -7 20 -19 21 -18 16 5 -5 23 -5 23 10 -2 10
-16 15 -19 16 -10 0 12 2 13 9 1 6 -9 11 -10 15 -2 4 6 12 11 17 11 6 0 8 -4
5 -8 -3 -5 1 -9 9 -9 8 0 15 5 15 10 0 6 3 7 7 4 3 -4 13 -1 21 6 12 9 14 9 9
0 -5 -7 2 -17 15 -24 20 -10 21 -10 11 2 -9 11 -7 14 13 15 13 1 22 -2 19 -6
-3 -5 7 -6 22 -3 33 6 41 6 70 -1 13 -2 26 0 29 6 5 7 2 8 -6 3 -9 -5 -11 -4
-6 4 6 9 11 9 22 0 11 -9 14 -9 14 0 0 7 5 9 10 6 6 -4 16 -3 23 2 15 12 26
10 54 -5 19 -11 22 -10 17 3 -5 13 -2 14 20 5 20 -7 25 -7 20 1 -4 8 1 9 15 4
13 -4 29 -1 38 7 10 8 14 8 10 1 -4 -6 -3 -14 3 -18 5 -3 10 0 10 8 0 9 9 13
25 12 14 -2 25 2 25 8 0 7 5 5 10 -3 8 -12 10 -12 10 -1 0 9 9 12 30 9 21 -3
30 0 30 9 0 8 5 11 10 8 6 -4 8 -11 5 -16 -11 -16 7 -10 22 9 9 10 11 11 7 2
-6 -11 -2 -11 12 2 16 14 23 15 34 5 8 -7 11 -8 7 -1 -4 7 0 15 9 18 12 4 15
2 10 -9 -4 -12 -2 -13 14 -3 14 9 16 14 7 20 -7 4 -7 8 -2 8 6 0 17 -5 25 -10
11 -7 20 -4 33 13 10 12 16 17 13 10 -4 -7 1 -11 13 -10 11 0 18 4 15 8 -7 13
23 18 35 6 9 -9 11 -8 6 4 -4 10 -1 20 6 25 8 4 10 3 5 -4 -4 -7 -2 -12 3 -12
6 0 11 5 11 12 0 6 3 8 7 5 3 -4 17 0 31 9 13 9 21 11 17 4 -5 -9 -1 -10 14
-5 13 4 21 2 21 -5 0 -6 5 -8 10 -5 6 3 10 0 10 -7 0 -9 3 -9 10 2 9 13 10 13
11 0 1 -8 1 -18 1 -22 -1 -3 5 -9 14 -12 10 -4 13 -1 9 7 -4 6 0 4 8 -5 8 -10
17 -15 20 -11 4 3 7 -1 7 -10 0 -10 7 -15 20 -12 11 2 19 1 19 -3 -3 -20 2
-32 14 -30 6 2 11 -5 11 -14 -1 -10 2 -18 7 -18 5 0 9 6 10 13 0 6 5 2 11 -10
6 -13 19 -25 29 -28 17 -6 23 -17 20 -37 0 -4 8 -10 19 -13 11 -4 20 -11 20
-16 0 -6 5 -7 10 -4 6 3 10 -1 10 -9 0 -9 5 -16 10 -16 6 0 10 -7 10 -16 0 -9
5 -12 13 -8 7 5 7 2 -2 -10 -8 -9 -10 -16 -5 -15 21 4 34 -2 34 -16 0 -8 5
-15 10 -15 6 0 10 -7 10 -15 0 -8 5 -15 10 -15 6 0 10 -7 10 -16 0 -8 4 -12
10 -9 6 3 10 -3 10 -15 0 -13 4 -19 12 -14 6 4 8 3 4 -4 -3 -6 1 -18 10 -26 8
-9 11 -16 6 -16 -6 0 3 -14 19 -31 25 -26 27 -34 17 -52 -10 -20 -10 -21 6 -8
14 12 16 12 10 -4 -6 -14 -4 -16 7 -10 12 8 12 6 0 -9 -12 -15 -12 -17 0 -14
8 2 13 -4 11 -14 -1 -9 3 -20 9 -24 8 -5 9 -3 4 6 -5 8 -4 11 3 6 6 -4 9 -13
5 -21 -3 -9 1 -15 8 -15 12 0 12 -2 0 -9 -11 -7 -10 -12 6 -28 11 -11 17 -25
15 -31 -2 -7 1 -12 6 -12 6 0 8 -9 5 -20 -4 -15 0 -20 13 -20 16 0 17 -2 4
-10 -11 -7 -11 -10 -2 -10 7 0 10 -4 7 -10 -3 -5 -2 -10 3 -10 6 0 13 -7 16
-16 3 -8 2 -12 -4 -9 -6 3 -7 -1 -4 -9 3 -9 9 -14 13 -11 4 2 8 -2 8 -10 0 -8
-4 -12 -9 -9 -5 4 -4 -3 3 -14 7 -12 16 -19 19 -17 3 2 6 -5 6 -15 0 -14 -3
-16 -13 -8 -20 17 -15 4 10 -26 16 -18 23 -39 22 -61 0 -18 2 -32 6 -29 4 2
10 -3 13 -12 4 -10 2 -13 -7 -8 -8 5 -7 2 2 -9 8 -10 11 -20 7 -24 -3 -3 2
-15 11 -26 10 -10 17 -21 16 -23 -8 -13 -1 -34 9 -28 7 4 8 3 4 -5 -6 -9 -11
-9 -24 1 -14 12 -14 11 0 -12 9 -14 15 -35 13 -47 -1 -13 2 -23 6 -23 4 0 10
-7 13 -16 3 -8 2 -13 -2 -10 -5 3 -6 -8 -4 -24 3 -19 9 -27 16 -23 6 3 6 0 -1
-8 -16 -16 -17 -29 -2 -29 5 0 7 5 3 12 -4 6 -3 8 3 5 7 -4 8 -20 3 -42 -4
-19 -4 -33 0 -30 5 3 11 1 15 -5 3 -5 0 -10 -7 -10 -9 0 -9 -3 2 -10 13 -9 13
-10 0 -10 -12 0 -12 -2 -2 -9 7 -4 12 -12 11 -17 -4 -24 2 -55 10 -50 10 7 9
-20 -2 -30 -4 -4 -2 -13 4 -21 6 -7 9 -13 5 -13 -3 0 -1 -11 4 -24 6 -16 5
-28 -3 -36 -9 -10 -9 -11 2 -5 10 6 12 2 6 -14 -4 -14 -1 -23 9 -27 9 -3 13
-11 10 -16 -4 -6 -10 -5 -15 3 -5 8 -7 0 -5 -21 1 -19 8 -36 15 -38 8 -3 7 -9
-6 -19 -10 -8 -13 -12 -6 -8 19 9 28 -42 12 -62 -8 -9 -9 -14 -3 -10 7 4 14 1
16 -6 5 -14 2 -72 -5 -102 -3 -11 1 -37 8 -58 9 -25 9 -39 2 -44 -5 -3 -7 -1
-3 5 3 6 2 13 -3 16 -5 4 -8 -2 -7 -11 2 -10 8 -18 14 -18 6 0 14 -3 18 -8 4
-4 -1 -7 -11 -7 -16 0 -17 -2 -3 -17 17 -20 13 -47 -5 -36 -8 5 -8 2 0 -9 7
-8 10 -18 6 -21 -3 -4 -2 -7 3 -7 5 0 10 -9 10 -19 0 -11 -4 -17 -8 -15 -4 3
-8 1 -8 -5 0 -5 6 -11 13 -14 9 -3 8 -8 -3 -22 -14 -17 -13 -18 4 -11 20 7 20
7 0 -15 -10 -12 -13 -19 -6 -15 15 9 16 -16 1 -31 -8 -8 -7 -13 2 -18 8 -6 10
-4 4 5 -6 9 -4 11 4 5 9 -5 9 -11 3 -17 -6 -6 -8 -17 -5 -24 3 -8 -1 -22 -8
-31 -8 -9 -9 -14 -3 -10 7 4 15 0 18 -9 3 -8 2 -12 -3 -9 -5 3 -12 1 -16 -5
-3 -5 -2 -10 4 -10 10 0 7 -31 -5 -53 -6 -8 -3 -8 9 1 15 12 15 11 7 -17 -6
-23 -5 -35 6 -46 10 -10 11 -15 4 -15 -7 0 -10 -7 -6 -15 3 -8 0 -15 -7 -15
-8 0 -6 -4 3 -10 8 -5 10 -10 4 -10 -12 0 -12 -28 -1 -47 4 -6 -2 -13 -13 -16
-11 -3 -23 -1 -26 4 -8 14 -26 11 -19 -3 4 -7 -3 -2 -14 12 -18 21 -20 21 -15
5 7 -18 5 -18 -19 4 -22 20 -29 22 -42 11 -15 -12 -16 -11 -19 12 -2 18 -37
23 -47 6 -7 -10 -9 -9 -9 5 0 9 -5 17 -11 17 -5 0 -7 -6 -4 -12 4 -7 -1 -4 -9
6 -12 15 -16 16 -17 5 0 -10 -2 -10 -6 -1 -2 6 -10 10 -16 6 -7 -3 -3 2 7 10
22 18 14 21 -14 6 -13 -7 -21 -7 -25 0 -4 6 -11 8 -16 5 -5 -4 -9 -1 -9 5 0 8
-6 8 -21 0 -19 -11 -20 -10 -9 10 7 13 8 20 3 17 -5 -3 -15 -2 -23 3 -9 5 -20
4 -28 -3 -11 -9 -18 -6 -33 13 -16 21 -20 23 -29 10 -8 -12 -10 -12 -10 -1 0
9 -8 12 -25 9 -13 -3 -22 -2 -20 2 3 4 -3 14 -12 21 -15 12 -16 12 -10 -4 7
-20 -3 -16 -37 12 -13 10 -17 11 -12 3 7 -11 4 -12 -13 -3 -12 7 -27 9 -34 5
-9 -6 -8 -3 1 8 8 10 9 19 3 22 -5 4 -13 2 -16 -4 -5 -8 -12 -7 -23 2 -12 10
-14 10 -8 1 4 -7 5 -13 1 -13 -3 0 -10 10 -15 23 -8 20 -9 20 -10 2 -1 -19 -1
-19 -11 -2 -6 9 -14 15 -20 12 -5 -4 -9 -1 -9 6 0 8 -4 8 -15 -1 -10 -8 -15
-9 -15 -2 0 6 -7 9 -15 6 -11 -5 -13 -2 -9 10 4 11 2 15 -8 11 -8 -3 -21 2
-29 12 -13 17 -13 17 5 3 13 -10 17 -11 12 -2 -5 8 1 20 15 33 14 12 17 19 8
19 -12 0 -12 2 1 9 8 6 18 7 22 5 4 -3 5 2 2 10 -3 9 -1 16 5 16 6 0 10 6 9
13 -2 6 2 11 8 10 7 -1 10 6 7 17 -5 19 6 26 31 21 5 -1 3 6 -5 15 -12 16 -12
17 2 12 13 -5 16 -2 12 13 -3 11 0 19 7 19 7 0 10 7 6 15 -3 8 -1 15 5 15 6 0
7 6 3 13 -5 7 0 6 11 -3 17 -14 18 -14 7 7 -16 30 -15 41 1 18 13 -16 14 -15
12 13 -1 17 2 29 6 26 5 -3 11 7 15 21 3 14 11 25 18 25 6 0 4 4 -4 10 -12 8
-12 10 3 16 13 5 15 10 7 19 -8 10 -5 17 12 29 20 14 18 21 -4 17 -13 -2 -9 6
9 20 14 12 16 12 8 0 -5 -9 -4 -12 3 -8 5 4 8 16 5 27 -4 15 0 20 13 20 11 0
15 3 8 8 -7 5 -7 18 1 45 6 22 15 35 20 30 5 -4 3 0 -5 10 -10 14 -11 17 0 15
7 -2 15 3 18 11 3 10 0 11 -9 5 -9 -5 -7 2 5 20 10 16 14 26 8 22 -12 -7 -10
20 3 31 4 4 5 2 0 -6 -5 -10 -4 -12 3 -7 9 5 9 13 2 27 -10 18 -6 24 14 20 5
-1 4 5 -4 13 -10 13 -10 16 0 16 9 0 9 4 2 13 -7 8 -6 19 3 37 9 17 10 30 3
44 -6 12 -7 16 0 12 5 -3 13 2 16 11 4 9 1 20 -6 25 -9 5 -7 8 7 8 18 1 18 2
-2 10 -13 5 -23 12 -23 15 0 4 5 3 10 0 6 -3 10 -1 10 5 0 6 4 9 9 6 15 -10 6
25 -10 36 -11 8 -11 9 3 4 10 -3 20 0 24 6 5 7 2 8 -6 3 -13 -8 -13 -5 4 65 2
8 -1 23 -6 33 -6 12 -5 17 4 18 10 0 10 2 -1 6 -11 5 -11 7 0 14 12 7 11 9 -1
9 -13 0 -13 1 0 10 12 8 12 10 1 10 -11 0 -11 3 -1 15 7 8 8 15 3 15 -5 0 -10
7 -10 15 0 8 5 15 11 15 6 0 4 5 -4 10 -13 9 -13 10 0 10 13 0 13 1 0 10 -13
9 -13 10 0 10 13 0 13 1 0 10 -8 5 -10 10 -4 10 6 0 11 7 11 15 0 8 -5 15 -10
15 -5 0 -4 7 3 15 10 12 10 15 -1 15 -11 0 -11 2 1 10 13 9 13 10 0 10 -13 0
-13 1 0 10 13 9 13 10 0 10 -13 0 -13 1 0 10 12 8 12 10 1 10 -11 0 -11 3 -1
15 9 10 9 15 1 15 -13 0 -10 22 4 32 6 5 4 8 -5 8 -13 0 -13 1 0 10 13 9 13
10 0 10 -13 0 -13 1 0 10 13 9 13 10 0 10 -13 0 -13 1 0 10 13 9 13 11 0 20
-13 9 -13 10 0 10 9 0 11 3 5 8 -14 10 -17 32 -5 32 12 0 9 22 -5 32 -6 5 -4
8 5 8 13 0 13 1 0 10 -8 5 -10 10 -4 10 6 0 11 7 11 15 0 9 -6 14 -13 11 -10
-4 -11 1 -4 19 6 17 6 25 -1 25 -6 0 -8 4 -5 9 3 5 -1 12 -10 15 -9 3 -14 12
-12 18 6 16 -16 38 -36 38 -9 0 -21 9 -28 19 -9 15 -15 17 -25 9 -9 -7 -13 -7
-13 0 0 7 -7 9 -17 5 -10 -4 -14 -2 -10 4 3 5 0 10 -8 10 -8 0 -12 -4 -9 -8 2
-4 0 -10 -6 -14 -5 -3 -10 -1 -10 5 0 6 -5 8 -10 5 -6 -4 -7 -12 -3 -18 4 -7
-2 -5 -12 3 -10 8 -16 10 -12 3 4 -6 3 -14 -3 -18 -5 -3 -10 -1 -10 5 0 6 -5
8 -10 5 -6 -4 -8 -11 -5 -16 4 -5 1 -10 -4 -10 -6 -1 -17 -2 -23 -3 -8 -1 -13
-16 -13 -38 0 -28 -3 -34 -13 -26 -10 8 -11 7 -6 -7 5 -12 4 -16 -4 -11 -13 8
-7 -33 7 -47 7 -7 7 -17 0 -29 -5 -10 -6 -24 -2 -31 11 -18 12 -37 2 -37 -6 0
-7 -6 -2 -12 12 -20 13 -41 1 -55 -7 -9 -7 -13 1 -13 6 0 11 -5 11 -11 0 -5
-3 -8 -7 -6 -5 3 -9 -6 -9 -19 -1 -15 2 -22 10 -17 6 3 8 3 4 -2 -4 -4 -3 -16
3 -26 7 -14 7 -19 -2 -17 -6 2 -14 -3 -17 -11 -3 -10 0 -11 9 -5 12 6 12 5 1
-8 -10 -13 -10 -17 0 -21 10 -4 10 -8 -2 -16 -11 -8 -11 -11 -2 -11 10 0 10
-5 2 -21 -7 -11 -9 -23 -6 -27 3 -3 6 1 6 8 0 7 3 10 6 7 4 -4 1 -13 -6 -22
-8 -10 -9 -15 -1 -15 6 0 11 -5 11 -11 0 -5 -5 -7 -11 -3 -7 4 -7 -1 1 -16 8
-15 8 -20 1 -16 -6 4 -11 3 -11 -3 0 -5 5 -13 10 -16 7 -4 6 -13 -1 -27 -8
-15 -8 -19 0 -14 15 10 14 -7 -1 -23 -11 -11 -10 -12 2 -6 9 5 8 0 -4 -14 -14
-15 -15 -20 -5 -16 11 4 15 -1 15 -19 0 -14 -4 -22 -8 -20 -5 3 -6 10 -3 15 4
5 2 9 -3 9 -16 0 -8 -60 8 -61 10 0 8 -3 -5 -9 -11 -5 -14 -9 -7 -9 7 -1 10
-6 7 -11 -4 -6 -12 -7 -18 -3 -8 5 -8 2 0 -9 7 -8 10 -18 6 -22 -4 -4 1 -4 12
0 15 6 14 3 -5 -16 -16 -16 -20 -25 -11 -28 7 -2 8 -8 3 -15 -13 -17 -22 -58
-12 -52 5 3 8 -10 7 -29 -1 -19 -5 -32 -8 -30 -4 2 -15 -6 -25 -19 -16 -18
-16 -20 -1 -8 15 12 17 11 14 -7 -2 -12 -7 -25 -12 -29 -4 -5 -5 -2 0 6 6 10
4 12 -4 7 -9 -6 -9 -11 0 -22 9 -11 8 -15 -5 -20 -9 -3 -16 -10 -16 -16 0 -5
5 -6 10 -3 6 3 10 1 10 -4 0 -6 -7 -11 -16 -11 -13 0 -14 -3 -4 -15 10 -12 9
-16 -3 -21 -9 -3 -13 -12 -11 -19 3 -7 1 -16 -5 -20 -6 -3 -11 -15 -11 -26 0
-14 -4 -18 -12 -13 -8 5 -7 0 2 -11 14 -17 13 -18 -4 -12 -16 6 -17 5 -6 -8 9
-11 9 -15 1 -15 -7 0 -9 -5 -5 -12 5 -8 1 -9 -12 -4 -15 6 -16 5 -7 -5 10 -10
9 -15 -5 -26 -12 -10 -12 -12 -2 -8 10 4 9 2 -2 -8 -21 -16 -24 -32 -5 -21 13
8 -6 -18 -35 -48 -9 -9 -15 -26 -13 -38 2 -11 0 -18 -4 -15 -10 6 -33 -19 -29
-31 2 -5 0 -9 -4 -9 -14 0 -40 -46 -34 -60 3 -8 2 -14 -2 -14 -20 3 -33 -2
-27 -11 3 -5 1 -10 -5 -10 -6 0 -8 -4 -5 -10 3 -5 -1 -10 -10 -10 -11 0 -15
-5 -11 -15 4 -11 -3 -19 -22 -27 -15 -6 -31 -10 -35 -9 -5 1 -6 -3 -2 -9 5 -8
12 -7 23 2 15 12 16 11 3 -5 -8 -10 -20 -16 -27 -13 -8 3 -11 0 -7 -10 3 -9
-1 -14 -12 -14 -11 0 -15 -5 -12 -14 4 -10 1 -13 -9 -9 -7 3 -14 0 -14 -7 0
-6 -4 -9 -9 -6 -5 3 -8 -2 -7 -12 0 -10 -6 -16 -16 -16 -10 1 -18 -4 -18 -12
0 -8 -4 -15 -10 -15 -5 -1 -14 -2 -19 -3 -5 0 -13 -5 -18 -10 -5 -5 -2 -6 6
-1 9 5 12 4 7 -3 -4 -7 -16 -12 -28 -12 -11 0 -35 -16 -52 -35 -22 -24 -39
-33 -53 -31 -13 3 -24 -2 -27 -11 -5 -13 -9 -13 -23 -2 -10 8 -14 9 -10 2 4
-6 3 -14 -3 -18 -5 -3 -10 0 -10 7 0 10 -2 10 -9 -1 -5 -8 -18 -12 -30 -8 -12
3 -19 1 -16 -3 3 -5 0 -12 -7 -16 -17 -11 -48 -13 -42 -3 2 4 -6 6 -18 3 -13
-3 -27 -6 -33 -7 -5 -2 -15 -6 -21 -10 -7 -4 -18 0 -25 9 -12 14 -14 14 -26
-2 -7 -10 -13 -13 -13 -7 0 6 -8 10 -17 8 -10 -1 -24 3 -32 9 -11 8 -13 8 -7
-1 10 -18 -4 -16 -28 5 -20 16 -20 16 -7 0 16 -22 -1 -24 -22 -4 -11 11 -17
12 -27 3 -10 -9 -11 -9 -6 1 5 8 0 12 -13 12 -12 0 -21 6 -21 13 0 8 -4 7 -10
-3 -7 -11 -10 -11 -10 -2 0 7 -4 10 -10 7 -5 -3 -10 2 -10 11 0 16 -1 16 -15
-2 -13 -16 -14 -16 -9 -1 5 13 2 16 -12 10 -11 -4 -15 -3 -11 4 5 7 0 9 -13 6
-15 -4 -20 0 -20 13 0 16 -2 17 -10 4 -8 -13 -10 -13 -10 2 0 9 -5 20 -12 24
-7 4 -8 3 -4 -4 5 -8 2 -10 -8 -6 -9 3 -14 10 -11 14 3 4 -3 7 -13 6 -9 0 -16
5 -14 11 1 7 -6 13 -15 13 -19 1 -64 30 -47 30 5 1 -3 8 -18 16 -26 14 -33 25
-29 48 1 5 -5 4 -13 -4 -14 -11 -16 -9 -16 9 0 11 -3 20 -7 20 -17 -3 -33 1
-32 9 3 19 -2 33 -11 27 -5 -3 -10 1 -10 10 0 9 -4 13 -10 10 -5 -3 -7 0 -4 8
3 8 0 18 -7 23 -8 4 -10 3 -5 -4 4 -7 5 -12 2 -12 -9 0 -40 64 -37 75 1 5 0 7
-4 3 -10 -9 -35 17 -35 35 0 16 -24 40 -32 32 -3 -3 -4 5 -3 19 3 23 -17 42
-38 37 -5 -1 -5 3 -2 9 11 17 -4 62 -17 54 -7 -5 -9 0 -6 14 4 12 2 20 -2 17
-5 -3 -11 -1 -14 4 -4 5 -2 12 3 16 12 7 3 35 -11 35 -6 0 -4 -8 3 -17 13 -16
12 -17 -4 -4 -9 8 -15 16 -12 19 3 3 0 11 -7 19 -9 11 -7 12 8 7 18 -6 18 -6
1 8 -10 7 -17 20 -15 28 2 9 -3 14 -12 12 -8 -2 -12 0 -8 4 4 4 2 14 -5 22
-10 13 -9 14 2 8 9 -6 12 -5 9 5 -3 8 -10 13 -16 12 -5 -1 -8 7 -5 17 3 12 0
20 -8 20 -7 0 -9 3 -6 6 3 4 1 16 -5 28 -11 20 -10 20 8 6 17 -14 18 -14 6 2
-8 10 -10 23 -6 30 5 8 1 8 -11 -2 -10 -8 -16 -10 -12 -3 4 6 3 14 -2 18 -7 4
-7 15 -1 30 7 17 6 25 -1 25 -6 0 -9 7 -5 15 3 8 1 15 -5 15 -6 0 -6 7 1 19 7
14 7 22 -2 27 -7 5 -8 3 -3 -6 5 -9 4 -11 -4 -6 -6 4 -9 11 -6 16 3 5 0 20 -6
32 -12 22 -11 22 7 8 18 -15 18 -14 2 11 -13 20 -14 29 -5 39 9 10 9 11 0 6
-16 -9 -16 -1 -3 24 7 13 7 21 -2 26 -6 4 -8 3 -4 -4 3 -6 3 -13 -2 -16 -4 -2
-8 11 -8 29 0 18 4 31 8 29 4 -3 8 2 8 11 0 9 -4 14 -8 11 -4 -2 -8 4 -8 15 0
10 4 19 7 19 4 0 4 14 -1 30 -5 19 -5 28 1 25 5 -4 9 1 9 9 0 9 6 16 14 16 9
0 12 7 9 18 -2 11 4 25 14 33 17 13 17 13 4 -6 -9 -13 -5 -11 11 5 14 14 23
30 20 35 -3 6 3 3 13 -5 11 -9 16 -10 11 -2 -4 7 -2 12 4 12 6 0 9 4 5 9 -3 5
-1 12 4 15 5 4 13 1 17 -5 5 -8 3 -9 -6 -4 -9 6 -11 4 -6 -4 6 -9 13 -8 29 6
14 13 18 14 13 3 -4 -9 -2 -8 7 3 14 17 33 24 23 9 -3 -5 1 -9 9 -9 8 0 12 4
9 8 -2 4 0 10 6 14 5 3 10 0 10 -7 1 -9 4 -8 10 3 6 10 20 15 35 14 14 -2 25
0 25 4 0 4 9 7 20 7 11 0 20 -4 20 -9 0 -4 5 -5 10 -2 6 4 8 10 5 15 -3 4 5 6
17 2 14 -3 19 -1 14 6 -5 8 -2 10 9 6 13 -5 13 -9 3 -23 -11 -14 -11 -14 3 -4
9 7 20 9 24 5 5 -4 4 -1 0 7 -6 11 -4 13 10 7 16 -6 16 -4 4 10 -13 16 -12 16
9 5 12 -7 20 -17 16 -22 -3 -6 3 -5 14 2 12 7 19 16 16 20 -2 4 5 5 16 2 11
-3 17 -9 14 -14 -3 -5 2 -6 10 -3 9 3 13 11 10 16 -4 6 3 5 15 -1 17 -10 21
-9 21 4 0 9 5 13 10 10 6 -4 8 -10 6 -14 -3 -4 1 -8 9 -8 8 0 12 4 9 9 -5 7
11 12 19 6 2 -2 11 3 20 10 10 9 17 10 22 2 4 -7 12 -7 24 0 10 5 20 7 22 5 3
-2 17 -6 32 -9 20 -3 27 -1 28 12 0 11 3 12 6 5 6 -15 39 -17 48 -3 10 16 25
12 25 -7 0 -15 1 -15 13 2 9 12 19 15 28 10 22 -14 50 -14 39 0 -8 9 -3 12 20
9 19 -2 30 1 30 9 0 8 4 7 10 -3 8 -12 10 -12 10 -1 0 8 7 11 20 8 11 -3 20
-1 20 4 0 5 5 9 11 9 5 0 8 -4 5 -8 -3 -5 1 -9 9 -9 8 0 12 3 10 7 -2 3 5 12
17 19 11 7 17 8 13 2 -3 -6 1 -11 10 -11 9 0 14 4 11 9 -3 5 1 11 9 15 8 3 15
0 16 -7 0 -9 2 -9 6 1 2 6 9 10 14 6 5 -3 12 2 15 10 5 13 10 13 27 4 21 -11
21 -10 7 7 -11 14 -11 17 -1 11 8 -5 17 -3 22 5 7 11 9 11 9 1 0 -7 4 -11 10
-7 5 3 7 13 4 23 -5 14 -4 15 5 2 10 -13 12 -13 21 0 5 8 10 11 10 6 0 -5 8 0
18 12 15 17 21 19 31 9 10 -9 11 -8 5 7 -6 15 -4 17 6 11 10 -6 12 -4 6 11 -4
10 -4 15 0 12 3 -4 13 0 21 8 8 8 19 12 24 9 5 -4 9 3 9 15 0 12 4 18 10 15 5
-3 16 9 25 27 8 18 13 24 10 13 -5 -15 -3 -17 5 -9 6 6 12 20 13 32 1 16 4 18
14 10 10 -8 12 -7 7 6 -3 9 -1 16 6 16 6 0 8 5 5 10 -3 6 -1 10 6 10 8 0 7 5
-2 17 -12 14 -12 16 2 11 20 -8 52 55 36 71 -8 8 -7 15 2 24 11 10 12 9 6 -2
-5 -9 -4 -12 3 -7 6 4 9 13 5 21 -3 9 1 15 8 15 10 0 11 2 2 8 -12 7 -12 22 0
52 14 40 16 51 7 45 -6 -3 -10 1 -10 10 0 9 5 13 11 9 8 -4 8 -1 1 12 -5 11
-8 27 -7 37 2 9 -6 23 -17 31 -11 8 -17 19 -14 25 4 5 1 13 -5 17 -8 4 -9 3
-5 -4 4 -7 2 -12 -3 -12 -6 0 -11 7 -11 15 0 8 -6 14 -12 12 -7 -1 -12 4 -10
11 1 8 -2 11 -8 7 -5 -3 -10 0 -10 7 0 9 -3 9 -10 -2 -8 -12 -10 -12 -10 -1 0
8 -3 11 -6 8 -4 -3 -16 -2 -27 4 -13 7 -17 7 -13 1 3 -6 2 -13 -4 -17 -5 -3
-10 -2 -10 4 0 5 -9 9 -20 8 -11 -1 -18 -7 -16 -13 3 -7 -3 -10 -14 -7 -12 3
-22 -3 -29 -16 -8 -13 -17 -18 -29 -14 -14 5 -13 2 3 -11 11 -9 16 -16 10 -15
-23 3 -36 -2 -30 -11 3 -5 0 -10 -7 -10 -9 0 -9 -3 2 -10 8 -5 10 -10 4 -10
-7 0 -14 -9 -17 -19 -4 -15 -1 -18 12 -13 14 5 14 4 2 -12 -13 -15 -13 -19 0
-27 10 -6 11 -9 1 -9 -7 0 -10 -4 -7 -10 3 -5 1 -10 -4 -10 -6 0 -11 -4 -11
-10 0 -5 8 -7 18 -4 14 5 14 3 -3 -11 -11 -9 -20 -26 -20 -38 -1 -28 -14 -49
-25 -42 -5 3 -12 -6 -16 -20 -3 -14 -9 -24 -12 -21 -3 3 -11 -3 -19 -13 -8
-12 -22 -18 -37 -17 -14 2 -27 -3 -30 -10 -3 -8 -17 -14 -31 -14 -14 0 -25 -6
-26 -12 0 -9 -2 -9 -6 1 -4 9 -8 10 -12 2 -4 -6 -21 -12 -39 -14 -18 -2 -35
-7 -40 -12 -4 -5 -1 -5 7 0 10 6 12 4 6 -5 -6 -10 -11 -9 -22 5 -7 11 -13 14
-13 9 0 -6 -7 -11 -15 -12 -8 -1 -22 -3 -30 -4 -10 -1 -14 -8 -10 -17 3 -11 0
-10 -10 3 -8 11 -15 15 -15 9 0 -6 -11 -13 -25 -15 -13 -3 -22 -1 -19 3 3 5
-4 9 -15 9 -12 0 -21 -6 -21 -12 0 -9 -4 -8 -10 2 -9 13 -10 13 -10 0 0 -13
-1 -13 -10 0 -8 12 -10 12 -10 -5 0 -15 -2 -17 -9 -6 -5 8 -16 11 -26 8 -9 -4
-13 -12 -9 -18 4 -8 3 -9 -5 -5 -6 4 -9 12 -6 17 4 5 1 9 -4 9 -6 0 -11 -4
-11 -10 0 -5 -5 -10 -11 -10 -5 0 -8 4 -4 9 3 5 -7 4 -22 -4 -24 -11 -44 -12
-96 -6 -5 1 -5 6 -1 13 4 7 3 8 -5 4 -6 -4 -8 -12 -5 -18 5 -7 2 -9 -8 -5 -9
3 -21 0 -28 -6 -10 -9 -11 -9 -6 1 9 15 -6 16 -22 0 -9 -9 -12 -9 -12 2 0 11
-3 11 -12 2 -9 -9 -15 -9 -27 1 -12 9 -13 9 -7 0 5 -9 -1 -13 -23 -13 -16 0
-31 -3 -34 -7 -2 -5 -2 -3 -1 4 2 7 -2 15 -8 19 -7 4 -8 3 -4 -4 4 -7 1 -12
-8 -12 -9 0 -16 -5 -16 -11 0 -5 -5 -7 -10 -4 -6 4 -7 11 -4 17 4 7 2 8 -5 4
-6 -4 -9 -12 -6 -17 4 -5 1 -9 -4 -9 -6 0 -11 5 -11 12 0 6 -7 3 -16 -8 -8
-10 -13 -13 -9 -6 3 6 1 12 -4 12 -6 0 -11 -5 -11 -11 0 -8 -6 -7 -17 2 -12
10 -15 11 -9 1 6 -9 1 -11 -18 -8 -17 3 -24 1 -20 -6 5 -7 -2 -9 -19 -6 -20 4
-24 2 -19 -11 5 -14 4 -14 -13 -1 -12 9 -16 10 -11 2 6 -9 1 -11 -18 -8 -15 3
-24 1 -21 -4 3 -4 -2 -11 -11 -14 -8 -3 -12 -2 -9 4 3 6 2 10 -4 10 -5 0 -11
-5 -13 -12 -3 -7 -20 -13 -39 -13 -20 -1 -33 -6 -32 -13 2 -6 -8 -14 -22 -18
-14 -3 -22 -10 -19 -15 3 -5 -2 -9 -11 -9 -8 0 -18 -7 -21 -15 -4 -8 -10 -15
-16 -15 -5 0 -6 5 -2 12 4 7 3 8 -5 4 -6 -4 -9 -12 -6 -17 4 -5 1 -9 -6 -9
-20 0 -48 -31 -42 -46 4 -10 0 -12 -13 -7 -10 4 -15 2 -11 -4 9 -14 -22 -55
-36 -46 -7 4 -6 -1 2 -10 12 -15 12 -17 -1 -12 -11 5 -15 0 -14 -17 1 -23 -14
-49 -25 -42 -3 2 -5 -7 -4 -19 1 -12 -3 -25 -9 -29 -7 -5 -7 -8 2 -8 7 0 10
-5 7 -10 -4 -6 -11 -7 -17 -4 -6 4 -6 -1 1 -14 8 -16 8 -24 -4 -36 -10 -9 -11
-17 -5 -21 14 -9 1 -27 -13 -18 -7 3 -3 -4 8 -17 17 -20 17 -22 3 -17 -11 4
-15 2 -13 -6 11 -30 13 -67 4 -67 -6 0 -3 -7 5 -16 21 -21 20 -30 -1 -13 -15
13 -15 12 -4 -9 6 -12 9 -27 6 -32 -3 -6 -1 -10 6 -10 8 0 7 -5 -2 -17 -10
-11 -10 -14 -1 -9 6 4 12 2 12 -3 0 -6 -6 -11 -12 -11 -7 -1 -2 -7 12 -15 14
-8 19 -14 13 -15 -15 0 -18 -50 -3 -50 7 0 7 -6 0 -20 -8 -15 -8 -20 1 -20 9
0 9 -3 0 -14 -9 -10 -8 -16 3 -25 8 -7 12 -20 9 -28 -4 -11 -2 -14 5 -9 7 4
12 2 12 -3 0 -6 -6 -11 -12 -11 -8 0 -6 -5 4 -10 10 -6 15 -20 13 -35 -1 -14
2 -25 8 -25 5 0 3 -8 -4 -17 -10 -11 -10 -14 -1 -9 7 4 12 2 12 -4 0 -6 5 -8
12 -4 7 4 8 3 4 -5 -4 -6 -11 -9 -16 -6 -4 3 -6 -4 -3 -15 3 -11 9 -20 14 -20
4 0 8 -8 8 -17 2 -45 6 -61 13 -57 4 3 8 0 8 -6 0 -6 4 -9 8 -6 11 6 9 -25 -3
-43 -5 -10 -4 -12 3 -7 7 4 12 2 12 -4 0 -6 5 -8 12 -4 7 4 8 3 4 -5 -4 -6 -2
-19 6 -28 11 -14 11 -16 -2 -9 -8 4 -6 0 4 -8 11 -9 17 -16 13 -16 -4 0 -3 -9
3 -20 6 -11 16 -17 22 -14 7 4 8 3 4 -5 -4 -6 -12 -9 -17 -6 -5 4 -9 2 -9 -4
0 -5 9 -13 20 -16 13 -4 20 -15 20 -31 0 -13 5 -24 10 -24 6 0 10 -7 10 -15 0
-8 5 -15 11 -15 6 0 9 -9 6 -19 -3 -14 -1 -18 9 -14 9 3 14 -2 14 -16 0 -12
13 -36 30 -54 30 -32 40 -54 18 -41 -7 4 -8 3 -4 -5 4 -6 11 -9 16 -6 12 7 32
-30 22 -40 -4 -5 -1 -5 6 -1 7 4 12 1 12 -9 0 -9 4 -14 9 -10 5 3 13 0 17 -6
4 -7 3 -9 -4 -5 -6 3 -13 -3 -17 -13 -4 -13 -11 -18 -22 -14 -12 5 -14 3 -8
-7 6 -10 4 -12 -7 -7 -9 3 -21 0 -28 -6 -10 -9 -11 -9 -6 3 5 9 2 8 -7 -2 -16
-20 -32 -25 -21 -7 4 8 0 8 -15 0 -11 -7 -21 -14 -21 -17 0 -3 5 -2 12 2 7 4
8 3 4 -5 -6 -9 -11 -9 -24 1 -11 9 -14 10 -8 1 5 -9 -1 -12 -24 -9 -24 3 -28
1 -20 -9 12 -15 -5 -16 -27 -2 -9 5 -11 3 -7 -6 4 -11 -2 -14 -20 -12 -14 2
-26 -1 -26 -7 0 -6 -9 -8 -20 -5 -11 3 -18 1 -14 -4 3 -5 -2 -9 -11 -9 -10 0
-13 -5 -9 -12 6 -10 5 -10 -7 -1 -12 10 -20 9 -39 -4 -18 -12 -22 -13 -16 -2
4 8 1 6 -8 -5 -8 -10 -19 -15 -24 -12 -15 9 -43 -4 -36 -16 4 -6 -3 -5 -15 1
-16 9 -21 9 -19 0 2 -6 -3 -14 -11 -17 -9 -3 -11 0 -7 9 4 8 0 5 -8 -5 -9 -11
-16 -16 -16 -12 0 5 -8 2 -17 -5 -10 -8 -14 -9 -10 -2 4 6 3 15 -3 18 -6 4 -9
1 -8 -7 2 -7 -7 -14 -19 -16 -13 -2 -24 -11 -24 -20 -1 -14 -2 -14 -6 1 -4 18
-6 17 -29 -4 -21 -19 -24 -20 -30 -5 -3 9 -10 16 -15 16 -6 0 -5 -10 1 -22 10
-21 10 -21 -9 2 -18 22 -20 47 -2 36 4 -3 8 4 8 15 1 10 -3 19 -8 19 -6 0 -7
-5 -3 -12 4 -7 3 -8 -5 -4 -15 10 -5 26 17 27 11 0 12 3 5 6 -7 2 -13 11 -13
19 0 8 6 14 13 14 8 0 7 4 -3 10 -13 9 -13 10 0 10 13 0 13 1 0 10 -13 9 -13
10 0 10 12 0 12 2 1 9 -9 6 -10 11 -2 15 6 4 11 12 11 17 0 6 -5 7 -11 3 -8
-5 -8 -1 0 14 8 14 8 23 1 27 -8 5 -7 11 1 21 9 11 8 14 -2 14 -11 0 -11 2 1
10 13 9 13 11 0 20 -12 8 -13 10 -1 10 8 0 11 3 8 7 -4 3 -2 12 4 19 7 8 6 14
-2 20 -8 5 -9 3 -4 -6 5 -8 4 -11 -3 -6 -6 4 -9 13 -6 21 4 8 9 13 13 10 4 -2
6 14 5 37 -1 22 -7 44 -14 48 -8 5 -5 9 9 13 12 3 21 11 20 19 0 10 -2 10 -6
1 -8 -21 -18 -15 -18 12 0 14 3 25 6 25 5 0 4 36 -1 50 -1 3 -1 15 0 28 1 12
-4 22 -10 22 -7 0 -2 9 11 21 15 13 18 19 8 16 -13 -4 -15 -1 -11 15 4 15 7
17 13 6 6 -9 9 -9 9 -1 0 6 -5 15 -11 18 -7 5 -4 14 7 26 17 19 17 20 -2 13
-16 -6 -17 -5 -7 7 6 8 11 41 10 76 -1 33 1 59 4 57 4 -2 10 3 13 12 3 8 2 13
-3 10 -5 -3 -8 5 -8 19 0 16 4 22 11 18 6 -4 4 2 -4 12 -9 11 -10 16 -2 11 6
-4 12 -2 12 3 0 6 -5 11 -11 11 -5 0 -7 5 -4 10 4 6 12 7 18 4 9 -5 9 -3 0 6
-10 11 -9 16 5 27 15 13 15 14 -8 9 -14 -3 -19 -3 -12 0 6 3 9 11 5 17 -4 6 0
8 9 5 9 -4 15 0 15 8 0 8 -6 13 -12 10 -6 -2 -12 2 -12 10 0 7 4 11 8 8 4 -2
10 0 14 5 3 5 -3 15 -12 21 -15 10 -15 11 -1 6 14 -4 16 3 13 45 -2 36 2 52
11 56 8 3 11 9 8 14 -3 5 -10 6 -16 3 -7 -5 -8 -2 -4 5 5 7 15 10 25 7 12 -5
11 -2 -3 9 -11 8 -15 15 -9 15 6 0 13 9 16 20 3 11 2 18 -1 16 -4 -2 -7 9 -7
24 0 15 2 27 5 25 4 -2 11 5 18 16 9 14 9 18 1 17 -6 -2 -14 3 -17 11 -3 8 0
11 7 7 7 -5 10 3 7 24 -2 21 0 30 8 27 12 -5 16 36 5 48 -4 3 0 21 9 38 19 38
24 59 11 51 -5 -3 -9 0 -9 5 0 6 7 11 15 11 13 0 14 4 4 21 -6 12 -7 19 -1 15
5 -3 12 1 16 9 3 8 0 15 -7 15 -7 1 -5 6 6 14 17 14 24 32 8 21 -5 -3 -12 -1
-15 4 -3 5 3 11 13 14 14 3 19 12 17 31 -2 14 1 26 7 26 5 0 7 9 4 20 -3 11
-1 18 3 15 5 -3 7 10 6 30 -2 19 1 38 7 42 6 4 7 1 2 -7 -5 -9 -4 -11 4 -6 9
6 9 11 -1 24 -10 12 -10 14 0 8 8 -5 12 1 12 19 0 15 4 24 10 20 9 -6 12 1 9
23 -1 4 -6 6 -12 4 -7 -1 -4 4 7 12 10 8 15 20 11 25 -3 6 1 14 9 17 9 3 13
10 10 15 -3 5 0 9 7 9 8 0 7 5 -2 17 -10 11 -10 14 -1 9 7 -4 12 -1 12 9 0 9
5 13 10 10 6 -3 10 -1 10 4 0 6 -6 11 -12 12 -10 0 -10 2 0 6 6 2 10 9 6 14
-3 5 -1 9 5 9 6 0 7 8 4 17 -5 12 -2 15 9 10 12 -4 14 -1 10 15 -3 15 -2 19 7
14 8 -5 10 0 7 18 -3 15 -1 24 4 21 5 -3 11 -1 15 5 3 5 0 10 -7 11 -7 0 -3 4
10 9 12 5 22 15 22 22 0 9 -3 9 -10 -2 -5 -8 -10 -10 -10 -5 0 12 20 44 20 32
0 -5 5 -5 11 -1 8 4 7 9 -2 15 -8 5 -9 9 -3 9 6 0 14 14 18 30 3 17 11 30 17
30 8 0 7 -6 -2 -17 -13 -16 -12 -17 3 -5 9 8 15 19 12 26 -3 8 2 16 11 20 9 3
14 10 10 16 -3 5 3 18 14 29 11 11 16 23 13 27 -4 4 2 4 12 0 15 -5 16 -4 8 7
-8 10 -6 16 9 26 12 7 18 19 15 26 -3 8 -2 14 2 13 4 -1 15 2 25 7 14 6 15 10
6 22 -7 8 -8 13 -3 11 14 -4 67 50 59 61 -3 6 0 8 9 5 8 -3 17 2 20 14 6 19
31 23 54 9 8 -6 10 -3 5 9 -4 12 -3 15 5 10 7 -4 12 -15 12 -24z m-750 -62 c0
-5 -5 -10 -11 -10 -5 0 -7 5 -4 10 3 6 8 10 11 10 2 0 4 -4 4 -10z m2235 -278
c-3 -3 -11 0 -18 7 -9 10 -8 11 6 5 10 -3 15 -9 12 -12z m-645 -362 c0 -5 -5
-10 -11 -10 -5 0 -7 5 -4 10 3 6 8 10 11 10 2 0 4 -4 4 -10z m-2575 -89 c3 -5
2 -12 -3 -15 -5 -3 -9 1 -9 9 0 17 3 19 12 6z m5309 -57 c3 -8 2 -12 -4 -9 -6
3 -10 10 -10 16 0 14 7 11 14 -7z m-3674 -8 c-7 -7 -13 -7 -20 0 -6 6 -3 10
10 10 13 0 16 -4 10 -10z m-140 -90 c0 -2 -7 -7 -16 -10 -8 -3 -12 -2 -9 4 6
10 25 14 25 6z m3070 -337 c0 -5 -4 -9 -8 -9 -5 0 -9 7 -9 15 0 8 4 12 9 9 4
-3 8 -9 8 -15z m-240 -480 c0 -5 -4 -9 -8 -9 -5 0 -9 7 -9 15 0 8 4 12 9 9 4
-3 8 -9 8 -15z m654 -57 c3 -5 -1 -9 -9 -9 -8 0 -12 4 -9 9 3 4 7 8 9 8 2 0 6
-4 9 -8z m-1994 -687 c0 -2 -10 -9 -22 -15 -22 -11 -22 -10 -4 4 21 17 26 19
26 11z m1190 -165 c0 -5 -2 -10 -4 -10 -3 0 -8 5 -11 10 -3 6 -1 10 4 10 6 0
11 -4 11 -10z"/>
<path d="M2946 5372 c-3 -5 1 -9 9 -9 8 0 12 4 9 9 -3 4 -7 8 -9 8 -2 0 -6 -4
-9 -8z"/>
<path d="M2150 4560 c0 -5 5 -10 11 -10 5 0 7 5 4 10 -3 6 -8 10 -11 10 -2 0
-4 -4 -4 -10z"/>
<path d="M3290 4409 c0 -5 5 -7 10 -4 6 3 10 8 10 11 0 2 -4 4 -10 4 -5 0 -10
-5 -10 -11z"/>
<path d="M2705 4370 c-3 -6 1 -7 9 -4 18 7 21 14 7 14 -6 0 -13 -4 -16 -10z"/>
<path d="M2795 4351 c-3 -5 -2 -12 3 -15 5 -3 9 1 9 9 0 17 -3 19 -12 6z"/>
<path d="M5270 3780 c0 -5 5 -10 11 -10 5 0 7 5 4 10 -3 6 -8 10 -11 10 -2 0
-4 -4 -4 -10z"/>
<path d="M5425 2449 c-4 -6 -5 -12 -2 -15 2 -3 7 2 10 11 7 17 1 20 -8 4z"/>
<path d="M2655 3710 c-3 -5 -1 -10 4 -10 6 0 11 5 11 10 0 6 -2 10 -4 10 -3 0
-8 -4 -11 -10z"/>
<path d="M3145 3709 c-3 -4 1 -9 9 -12 8 -3 17 0 19 7 5 13 -21 18 -28 5z"/>
<path d="M3583 3355 c0 -8 4 -12 9 -9 5 3 6 10 3 15 -9 13 -12 11 -12 -6z"/>
<path d="M4147 3249 c7 -7 15 -10 18 -7 3 3 -2 9 -12 12 -14 6 -15 5 -6 -5z"/>
<path d="M3160 3229 c0 -5 5 -7 10 -4 6 3 10 8 10 11 0 2 -4 4 -10 4 -5 0 -10
-5 -10 -11z"/>
<path d="M2576 3122 c-3 -4 4 -9 15 -9 23 -2 25 3 4 10 -8 4 -16 3 -19 -1z"/>
<path d="M2696 2802 c-3 -5 1 -9 9 -9 8 0 12 4 9 9 -3 4 -7 8 -9 8 -2 0 -6 -4
-9 -8z"/>
<path d="M2482 2677 c-12 -7 -19 -17 -15 -22 4 -5 0 -3 -9 4 -15 11 -18 11
-18 0 0 -11 -2 -11 -10 1 -8 12 -10 12 -16 -3 -3 -9 -10 -17 -16 -17 -5 0 -6
6 -2 13 4 6 -1 4 -12 -5 -11 -10 -30 -19 -42 -21 -24 -4 -73 -52 -63 -64 3 -4
-3 -1 -13 7 -13 10 -17 10 -12 3 4 -7 3 -13 -3 -13 -6 0 -7 -8 -4 -17 5 -12 2
-15 -10 -10 -16 6 -22 -4 -18 -27 1 -5 -5 -6 -14 -2 -11 4 -15 1 -13 -12 2
-10 -2 -16 -11 -14 -12 3 -12 1 0 -14 8 -10 10 -15 4 -12 -5 3 -16 0 -23 -8
-8 -9 -9 -14 -2 -14 6 0 8 -5 5 -10 -4 -6 -12 -7 -18 -3 -7 4 -5 -2 3 -12 8
-10 10 -16 4 -12 -7 4 -14 0 -18 -8 -3 -8 -1 -15 4 -15 6 0 10 -5 10 -11 0 -5
-5 -7 -11 -3 -8 5 -10 -3 -7 -25 4 -24 1 -31 -9 -27 -9 4 -11 2 -6 -7 12 -20
14 -47 3 -68 -7 -11 -7 -19 -1 -19 5 0 11 5 13 12 3 7 7 5 11 -6 4 -9 3 -15
-2 -12 -5 3 -11 -1 -15 -9 -3 -8 -1 -14 3 -12 5 1 9 -2 9 -8 0 -5 -5 -9 -12
-7 -6 1 -3 -4 8 -12 11 -9 16 -22 13 -31 -4 -8 -1 -15 5 -15 7 0 7 -4 -1 -13
-14 -18 -2 -30 16 -15 11 9 13 8 11 -3 -2 -8 -7 -17 -13 -21 -6 -4 -2 -8 8 -8
9 0 17 -6 17 -14 0 -8 7 -17 16 -20 8 -3 12 -10 9 -16 -3 -5 0 -10 8 -10 8 0
21 -8 28 -17 12 -14 12 -16 -1 -10 -8 4 -6 2 4 -5 11 -7 30 -23 42 -34 13 -12
25 -20 28 -17 2 3 15 -2 28 -11 12 -9 18 -16 12 -16 -5 0 -16 6 -24 13 -12 10
-12 9 0 -6 10 -13 21 -16 42 -12 21 5 28 3 28 -9 0 -9 5 -16 11 -16 5 0 7 6 3
13 -5 8 -2 7 9 -2 10 -8 20 -11 24 -7 3 3 17 -1 29 -9 14 -9 25 -11 29 -5 3 6
11 10 16 10 6 0 8 -4 5 -8 -3 -5 1 -9 9 -9 8 0 12 4 9 9 -8 13 10 10 25 -4 11
-11 12 -10 6 1 -6 11 -4 13 8 8 10 -3 17 -2 17 3 0 5 7 7 15 4 9 -4 15 0 15 7
0 11 3 11 10 -1 7 -11 10 -11 10 -2 0 7 5 10 10 7 6 -3 10 -1 10 4 0 6 5 11
11 11 5 0 7 -6 4 -12 -4 -7 0 -5 9 6 8 10 19 15 25 11 10 -6 16 8 12 28 -1 5
3 6 9 2 6 -3 8 -12 4 -18 -3 -7 1 -4 9 5 8 10 17 15 20 11 4 -3 7 1 7 9 0 17
26 31 41 23 5 -4 6 2 2 11 -4 12 -3 15 5 10 11 -6 16 5 13 26 0 4 6 5 15 1 8
-3 14 -2 12 3 -2 5 1 10 6 11 11 2 26 24 26 38 0 6 -5 3 -10 -5 -8 -12 -10 -9
-10 13 0 16 -4 26 -10 22 -5 -3 -10 1 -10 9 0 8 -5 18 -12 22 -7 5 -8 3 -3 -7
8 -12 6 -12 -8 0 -18 15 -23 26 -7 16 6 -3 10 -1 10 4 0 6 -4 11 -9 11 -5 0
-11 7 -14 14 -4 11 -1 13 11 10 14 -5 15 -4 2 5 -24 17 -53 14 -46 -5 6 -15 4
-15 -11 -3 -10 7 -15 10 -11 5 11 -13 -11 -48 -24 -40 -7 5 -9 1 -5 -9 4 -11
1 -17 -8 -17 -8 0 -19 -9 -25 -20 -13 -25 -31 -27 -24 -2 5 13 4 14 -4 3 -6
-8 -8 -20 -5 -28 4 -9 0 -11 -11 -7 -9 4 -16 1 -16 -6 0 -10 -3 -10 -15 0 -12
10 -14 8 -10 -9 3 -17 1 -20 -13 -12 -11 6 -20 4 -30 -7 -7 -10 -11 -12 -8 -5
5 8 -11 11 -58 10 -35 -1 -63 0 -61 3 2 3 0 12 -6 20 -6 10 -9 11 -9 3 0 -9
-9 -8 -34 4 -19 9 -34 19 -33 23 1 3 -11 19 -28 34 -16 16 -21 22 -10 15 18
-13 19 -12 8 2 -7 9 -9 19 -5 24 4 4 -2 3 -14 -3 -16 -9 -21 -8 -21 3 0 8 5
11 11 8 6 -4 2 4 -9 17 -11 13 -13 20 -6 15 8 -5 4 7 -9 26 l-24 34 24 -20 23
-20 -10 20 c-15 31 -16 105 -1 105 9 0 9 3 -2 11 -11 8 -12 12 -2 16 6 2 12
14 12 24 0 11 4 18 8 15 4 -2 14 4 21 16 7 11 8 17 2 14 -7 -4 -8 -1 -5 8 3 9
10 14 15 11 4 -3 13 4 19 15 6 11 14 19 18 19 19 -3 33 2 28 10 -3 4 6 13 20
20 14 6 23 7 19 1 -3 -6 1 -7 9 -4 9 3 13 10 10 15 -6 10 32 7 42 -4 4 -4 13
1 21 11 11 12 13 13 10 2 -3 -12 4 -15 33 -14 21 1 42 4 48 8 6 3 14 1 18 -5
4 -8 3 -9 -4 -5 -7 4 -12 2 -12 -5 0 -6 8 -9 19 -6 15 3 18 1 14 -11 -4 -10
-2 -13 5 -8 6 3 13 2 17 -4 4 -6 11 -8 16 -5 5 4 9 -3 9 -14 0 -14 6 -21 19
-21 10 0 21 -9 24 -20 3 -11 13 -20 22 -20 15 0 16 -2 4 -17 -10 -11 -10 -14
-1 -9 6 4 12 3 12 -3 0 -5 9 -13 20 -16 11 -3 20 -14 20 -23 0 -10 9 -23 20
-30 11 -7 17 -18 14 -27 -4 -10 2 -18 17 -24 22 -9 22 -10 4 -11 -19 -1 -18
-2 3 -10 12 -5 22 -12 22 -15 0 -4 -4 -3 -10 0 -5 3 -10 1 -10 -4 0 -11 15
-15 34 -12 5 1 3 -6 -5 -15 -9 -12 -9 -15 -1 -10 10 6 17 -5 11 -16 -1 -2 19
-24 45 -50 26 -27 43 -48 39 -48 -4 0 -19 12 -33 28 -14 15 -21 21 -15 12 19
-31 48 -59 56 -54 4 2 6 -4 4 -15 -3 -15 0 -18 12 -14 11 4 14 2 9 -5 -4 -7
-1 -12 8 -12 9 0 16 -7 16 -17 0 -9 3 -14 6 -10 3 3 17 -5 31 -19 13 -13 29
-21 35 -18 8 5 9 1 5 -10 -5 -13 -3 -17 7 -13 8 3 16 2 18 -3 2 -5 10 -10 18
-12 8 -2 20 -10 27 -18 11 -13 12 -12 13 5 1 18 2 18 10 -2 10 -24 25 -30 35
-13 3 5 12 7 20 4 8 -4 13 -10 10 -14 -3 -5 4 -6 15 -3 13 3 20 0 20 -8 0 -11
2 -11 10 1 8 13 11 12 25 -5 14 -19 15 -19 8 -1 -4 13 -3 17 5 12 6 -3 14 -1
18 5 5 9 11 7 21 -6 13 -18 13 -18 13 1 0 14 2 16 9 5 7 -11 11 -10 20 5 6 11
11 13 11 6 0 -7 5 -10 10 -7 6 4 8 10 6 14 -3 4 5 7 17 6 28 -3 48 5 42 15 -3
4 2 11 11 14 8 3 12 2 9 -4 -3 -6 -2 -10 2 -10 5 0 14 9 21 21 8 12 19 18 27
15 8 -3 14 -2 14 2 -3 21 3 32 17 32 8 0 12 5 9 10 -4 6 -3 10 2 9 22 -4 32 4
42 32 7 20 15 28 22 23 9 -5 10 -2 6 9 -3 10 -2 17 3 17 6 0 10 7 10 15 0 8 5
15 11 15 6 0 9 6 6 14 -3 8 1 17 9 20 12 4 12 10 4 26 -10 19 -6 24 13 21 5
-1 6 3 2 9 -4 6 -1 18 7 27 9 12 9 15 1 9 -9 -5 -12 0 -12 16 1 13 -2 31 -6
41 -4 11 -3 17 5 17 9 0 9 4 -1 17 -8 10 -9 14 -2 10 6 -4 14 -3 18 3 3 6 -4
10 -17 11 -13 0 -17 3 -10 6 6 2 12 9 12 14 0 6 -4 7 -10 4 -5 -3 -10 1 -10
10 0 10 5 13 13 9 6 -4 1 5 -13 21 -14 16 -19 25 -12 21 16 -10 15 2 -2 19 -7
8 -17 11 -22 7 -5 -4 -2 1 5 11 10 12 10 17 2 17 -7 0 -9 5 -6 10 3 6 -1 10
-9 10 -9 0 -16 9 -16 21 0 11 -4 17 -10 14 -5 -3 -10 2 -10 11 0 10 -3 15 -6
11 -4 -3 -13 0 -20 8 -17 17 -18 29 -2 19 7 -4 8 -3 4 5 -4 6 -11 9 -16 6 -14
-9 -38 5 -43 25 -4 14 -11 18 -32 14 -16 -3 -24 -1 -21 5 4 5 2 12 -4 16 -5 3
-10 1 -10 -5 0 -6 -10 -2 -22 9 -16 16 -25 18 -35 10 -12 -10 -17 -6 -14 13 1
8 -28 -1 -46 -14 -7 -5 -14 -5 -18 2 -6 10 1 14 20 10 6 -1 7 2 2 6 -13 13
-45 12 -40 -2 3 -9 -4 -10 -31 -4 -20 4 -36 5 -36 1 0 -3 -15 -6 -32 -6 -18 1
-52 -9 -74 -22 -23 -12 -44 -20 -47 -17 -3 3 -10 -4 -17 -15 -6 -12 -15 -19
-21 -16 -5 4 -9 -2 -10 -12 0 -11 -3 -13 -6 -5 -2 6 -9 10 -13 7 -5 -3 -7 -12
-3 -20 4 -11 1 -13 -13 -8 -14 5 -16 3 -11 -12 7 -16 5 -16 -10 -4 -9 8 -14 9
-10 3 6 -10 -18 -29 -33 -26 -8 1 -4 -58 5 -66 5 -4 5 -1 0 7 -5 10 -4 12 4 7
6 -4 9 -12 6 -17 -4 -5 1 -16 9 -25 11 -10 16 -12 16 -3 0 7 3 9 6 6 4 -4 1
-14 -7 -24 -9 -11 -10 -14 -1 -9 7 4 12 2 12 -4 0 -7 7 -9 16 -6 14 5 15 4 5
-8 -9 -11 -9 -16 0 -22 8 -4 9 -3 5 4 -4 7 -2 12 3 12 6 0 11 -6 11 -12 0 -8
7 -5 15 6 8 11 15 16 16 10 1 -5 4 2 8 16 4 14 13 24 19 23 6 -2 16 6 22 17 6
11 15 18 20 15 6 -4 7 1 3 11 -4 12 -3 15 5 10 7 -4 12 -2 12 3 0 6 3 10 8 10
19 -3 33 2 28 10 -3 5 1 11 8 14 8 3 17 1 19 -6 3 -9 8 -9 20 2 9 7 24 10 33
7 15 -6 15 -4 3 11 -13 16 -11 16 15 -1 28 -18 29 -18 23 0 -7 18 -6 18 8 0 8
-11 15 -15 15 -8 0 13 43 7 48 -7 2 -6 10 -7 18 -4 7 3 17 -2 20 -11 3 -9 12
-16 19 -16 7 0 16 -6 18 -12 4 -10 8 -10 15 0 7 11 11 10 17 -5 5 -10 7 -22 6
-27 -1 -4 11 -19 26 -33 21 -19 23 -24 8 -19 -17 6 -16 4 5 -20 14 -15 20 -25
15 -21 -7 3 -11 -5 -11 -19 0 -16 4 -23 13 -20 9 4 7 -4 -4 -22 -17 -26 -17
-27 1 -12 18 14 19 14 8 -6 -6 -12 -9 -24 -5 -27 3 -4 0 -13 -7 -22 -10 -12
-10 -15 1 -15 10 -1 9 -4 -3 -14 -21 -15 -24 -30 -5 -21 6 4 3 -1 -7 -9 -11
-9 -16 -16 -12 -16 4 0 0 -7 -8 -16 -9 -8 -14 -20 -11 -25 4 -5 0 -7 -7 -4 -7
2 -26 -7 -43 -21 -16 -15 -24 -23 -16 -19 9 6 12 4 7 -4 -4 -6 -18 -9 -32 -7
-14 3 -22 1 -19 -5 4 -5 1 -9 -5 -9 -6 0 -8 -5 -4 -12 5 -9 2 -9 -9 1 -11 8
-17 9 -17 3 0 -6 -7 -9 -15 -6 -9 4 -15 0 -15 -7 0 -11 -2 -11 -10 1 -8 12
-13 13 -29 3 -15 -9 -22 -10 -27 -1 -5 7 -3 8 6 3 8 -5 11 -4 7 3 -4 5 -17 8
-29 4 -16 -4 -19 -2 -13 9 8 12 6 12 -8 0 -11 -9 -17 -10 -17 -2 0 6 -7 11
-16 11 -9 0 -12 5 -8 13 6 9 5 9 -7 0 -17 -14 -39 0 -39 25 0 7 -4 10 -10 7
-5 -3 -10 4 -10 16 0 17 -3 19 -14 10 -11 -10 -16 -8 -21 8 -3 12 -11 21 -16
21 -5 0 -9 5 -9 11 0 5 5 7 12 3 7 -4 8 -3 4 5 -4 6 -12 9 -17 6 -5 -4 -12 2
-16 12 -4 10 -15 26 -26 36 -13 10 -15 17 -7 17 8 0 4 8 -9 19 -12 10 -20 25
-19 32 2 8 -5 13 -14 13 -11 -1 -14 4 -11 14 5 11 3 13 -8 7 -12 -8 -12 -6 0
8 12 16 8 22 -12 18 -5 -1 -11 8 -14 19 -3 11 -9 18 -13 15 -4 -2 -6 6 -5 20
2 17 -1 22 -11 18 -8 -3 -14 1 -14 11 0 9 -4 16 -10 16 -5 0 -10 5 -10 11 0 5
5 7 12 3 7 -4 8 -3 4 5 -4 6 -12 9 -17 6 -5 -4 -12 1 -15 10 -4 9 -26 37 -50
61 -24 24 -44 49 -44 54 0 6 -9 10 -21 10 -11 0 -18 4 -14 9 3 5 1 12 -5 16
-5 3 -10 1 -10 -5 0 -6 -5 -8 -10 -5 -6 4 -7 12 -4 18 4 7 4 9 -1 5 -4 -4 -15
-2 -23 5 -13 10 -15 9 -8 -3 5 -9 2 -9 -7 2 -21 26 -60 38 -81 26 -13 -7 -17
-7 -12 0 10 17 -28 19 -41 2 -10 -13 -12 -11 -8 8 4 20 2 22 -10 12 -17 -15
-77 -22 -69 -9 3 5 10 6 16 3 7 -4 8 -2 4 4 -9 14 -6 14 -34 -1z m213 -37 c3
-6 -1 -7 -9 -4 -18 7 -21 14 -7 14 6 0 13 -4 16 -10z m-365 -30 c0 -5 -5 -10
-11 -10 -5 0 -7 5 -4 10 3 6 8 10 11 10 2 0 4 -4 4 -10z m1230 -534 c0 -2 -8
-10 -17 -17 -16 -13 -17 -12 -4 4 13 16 21 21 21 13z"/>
<path d="M3550 2440 c0 -5 5 -10 11 -10 5 0 7 5 4 10 -3 6 -8 10 -11 10 -2 0
-4 -4 -4 -10z"/>
<path d="M2806 2327 c3 -10 9 -15 12 -12 3 3 0 11 -7 18 -10 9 -11 8 -5 -6z"/>
<path d="M2830 2286 c0 -2 7 -7 16 -10 8 -3 12 -2 9 4 -6 10 -25 14 -25 6z"/>
<path d="M4665 1921 c-3 -5 -2 -12 3 -15 5 -3 9 1 9 9 0 17 -3 19 -12 6z"/>
<path d="M4670 1706 c0 -2 7 -7 16 -10 8 -3 12 -2 9 4 -6 10 -25 14 -25 6z"/>
<path d="M2507 1389 c7 -7 15 -10 18 -7 3 3 -2 9 -12 12 -14 6 -15 5 -6 -5z"/>
<path d="M3250 1296 c7 -7 13 -7 20 0 6 6 3 10 -10 10 -13 0 -16 -4 -10 -10z"/>
<path d="M2950 5816 c0 -2 7 -7 16 -10 8 -3 12 -2 9 4 -6 10 -25 14 -25 6z"/>
<path d="M3195 5720 c3 -5 8 -10 11 -10 2 0 4 5 4 10 0 6 -5 10 -11 10 -5 0
-7 -4 -4 -10z"/>
<path d="M3690 5561 c0 -5 5 -13 10 -16 6 -3 10 -2 10 4 0 5 -4 13 -10 16 -5
3 -10 2 -10 -4z"/>
<path d="M1996 5507 c3 -10 9 -15 12 -12 3 3 0 11 -7 18 -10 9 -11 8 -5 -6z"/>
<path d="M3880 5506 c0 -2 7 -9 15 -16 9 -7 15 -8 15 -2 0 5 -7 12 -15 16 -8
3 -15 4 -15 2z"/>
<path d="M799 4363 c-13 -16 -12 -17 4 -4 9 7 17 15 17 17 0 8 -8 3 -21 -13z"/>
<path d="M5445 3920 c3 -5 11 -10 16 -10 6 0 7 5 4 10 -3 6 -11 10 -16 10 -6
0 -7 -4 -4 -10z"/>
</g>
</svg>
